G04 #@! TF.FileFunction,Soldermask,Top*
%FSLAX46Y46*%
G04 Gerber Fmt 4.6, Leading zero omitted, Abs format (unit mm)*
G04 Created by KiCad (PCBNEW (2014-11-23 BZR 5300)-product) date Tue 25 Nov 2014 12:27:08 AM EST*
%MOMM*%
G01*
G04 APERTURE LIST*
%ADD10C,0.100000*%
%ADD11R,2.432000X2.127200*%
%ADD12O,2.432000X2.127200*%
%ADD13R,2.127200X2.432000*%
%ADD14O,2.127200X2.432000*%
%ADD15R,2.432000X2.432000*%
%ADD16O,2.432000X2.432000*%
%ADD17R,1.200100X1.400760*%
%ADD18R,1.543000X0.908000*%
%ADD19R,1.289000X1.797000*%
%ADD20R,1.797000X1.289000*%
G04 APERTURE END LIST*
D10*
D11*
X191770000Y-102235000D03*
D12*
X191770000Y-104775000D03*
X191770000Y-107315000D03*
D11*
X191770000Y-112268000D03*
D12*
X191770000Y-114808000D03*
X191770000Y-117348000D03*
D13*
X170180000Y-124460000D03*
D14*
X172720000Y-124460000D03*
X175260000Y-124460000D03*
D11*
X157480000Y-97790000D03*
D12*
X157480000Y-100330000D03*
X157480000Y-102870000D03*
X157480000Y-105410000D03*
X157480000Y-107950000D03*
X157480000Y-110490000D03*
X157480000Y-113030000D03*
X157480000Y-115570000D03*
X157480000Y-118110000D03*
D15*
X165100000Y-91440000D03*
D16*
X167640000Y-91440000D03*
D15*
X173990000Y-91440000D03*
D16*
X176530000Y-91440000D03*
D15*
X182880000Y-91440000D03*
D16*
X185420000Y-91440000D03*
D17*
X167640000Y-97619820D03*
X166687500Y-95420180D03*
X168592500Y-95420180D03*
X173990000Y-97619820D03*
X173037500Y-95420180D03*
X174942500Y-95420180D03*
X184912000Y-97619820D03*
X183959500Y-95420180D03*
X185864500Y-95420180D03*
D18*
X184150000Y-102235000D03*
X184150000Y-103505000D03*
X184150000Y-104775000D03*
X184150000Y-106045000D03*
X177800000Y-106045000D03*
X177800000Y-104775000D03*
X177800000Y-103505000D03*
X177800000Y-102235000D03*
X184150000Y-114300000D03*
X184150000Y-115570000D03*
X184150000Y-116840000D03*
X184150000Y-118110000D03*
X177800000Y-118110000D03*
X177800000Y-116840000D03*
X177800000Y-115570000D03*
X177800000Y-114300000D03*
X169545000Y-112395000D03*
X169545000Y-113665000D03*
X169545000Y-114935000D03*
X169545000Y-116205000D03*
X163195000Y-116205000D03*
X163195000Y-114935000D03*
X163195000Y-113665000D03*
X163195000Y-112395000D03*
D19*
X165417500Y-109728000D03*
X167322500Y-109728000D03*
X181927500Y-111760000D03*
X180022500Y-111760000D03*
X181927500Y-99695000D03*
X180022500Y-99695000D03*
X180022500Y-108585000D03*
X181927500Y-108585000D03*
X180022500Y-120650000D03*
X181927500Y-120650000D03*
X161607500Y-97790000D03*
X163512500Y-97790000D03*
X161607500Y-101600000D03*
X163512500Y-101600000D03*
X161607500Y-105410000D03*
X163512500Y-105410000D03*
X174942500Y-101600000D03*
X173037500Y-101600000D03*
X174942500Y-113665000D03*
X173037500Y-113665000D03*
X174942500Y-104140000D03*
X173037500Y-104140000D03*
X174942500Y-116205000D03*
X173037500Y-116205000D03*
X173037500Y-106680000D03*
X174942500Y-106680000D03*
X173037500Y-118745000D03*
X174942500Y-118745000D03*
D20*
X187325000Y-105092500D03*
X187325000Y-103187500D03*
X187325000Y-117157500D03*
X187325000Y-115252500D03*
M02*
