M48
;DRILL file {pcbnew (2014-11-23 BZR 5300)-product} date Tue 25 Nov 2014 12:27:53 AM EST
;FORMAT={2:4/ absolute / inch / suppress leading zeros}
FMAT,2
INCH,TZ
T1C0.025
T2C0.040
T3C0.118
%
G90
G05
M72
T1
X64250Y-43600
X64250Y-46850
X66400Y-43200
X66500Y-38450
X68900Y-38450
X68900Y-48000
X70250Y-39250
X70300Y-47500
X70400Y-42750
X70800Y-45600
X71900Y-45000
X72100Y-42650
X72500Y-39850
X72500Y-47050
X72550Y-44000
X73400Y-38450
T2
X62000Y-38500
X62000Y-39500
X62000Y-40500
X62000Y-41500
X62000Y-42500
X62000Y-43500
X62000Y-44500
X62000Y-45500
X62000Y-46500
X65000Y-36000
X66000Y-36000
X67000Y-49000
X68000Y-49000
X68500Y-36000
X69000Y-49000
X69500Y-36000
X72000Y-36000
X73000Y-36000
X75500Y-40250
X75500Y-41250
X75500Y-42250
X75500Y-44200
X75500Y-45200
X75500Y-46200
T3
X62000Y-36000
X62000Y-49000
X76000Y-36000
X76000Y-49000
T0
M30
