G04 #@! TF.FileFunction,Copper,L1,Top,Signal*
%FSLAX46Y46*%
G04 Gerber Fmt 4.6, Leading zero omitted, Abs format (unit mm)*
G04 Created by KiCad (PCBNEW (2014-11-23 BZR 5300)-product) date Tue 25 Nov 2014 01:03:26 AM EST*
%MOMM*%
G01*
G04 APERTURE LIST*
%ADD10C,0.100000*%
%ADD11R,2.032000X1.727200*%
%ADD12O,2.032000X1.727200*%
%ADD13R,1.727200X2.032000*%
%ADD14O,1.727200X2.032000*%
%ADD15R,2.032000X2.032000*%
%ADD16O,2.032000X2.032000*%
%ADD17R,0.800100X1.000760*%
%ADD18R,1.143000X0.508000*%
%ADD19R,0.889000X1.397000*%
%ADD20R,1.397000X0.889000*%
%ADD21C,0.812800*%
%ADD22C,0.406400*%
%ADD23C,0.254000*%
G04 APERTURE END LIST*
D10*
D11*
X191770000Y-102235000D03*
D12*
X191770000Y-104775000D03*
X191770000Y-107315000D03*
D11*
X191770000Y-112268000D03*
D12*
X191770000Y-114808000D03*
X191770000Y-117348000D03*
D13*
X170180000Y-124460000D03*
D14*
X172720000Y-124460000D03*
X175260000Y-124460000D03*
D11*
X157480000Y-97790000D03*
D12*
X157480000Y-100330000D03*
X157480000Y-102870000D03*
X157480000Y-105410000D03*
X157480000Y-107950000D03*
X157480000Y-110490000D03*
X157480000Y-113030000D03*
X157480000Y-115570000D03*
X157480000Y-118110000D03*
D15*
X165100000Y-91440000D03*
D16*
X167640000Y-91440000D03*
D15*
X173990000Y-91440000D03*
D16*
X176530000Y-91440000D03*
D15*
X182880000Y-91440000D03*
D16*
X185420000Y-91440000D03*
D17*
X167640000Y-97619820D03*
X166687500Y-95420180D03*
X168592500Y-95420180D03*
X173990000Y-97619820D03*
X173037500Y-95420180D03*
X174942500Y-95420180D03*
X184912000Y-97619820D03*
X183959500Y-95420180D03*
X185864500Y-95420180D03*
D18*
X184150000Y-102235000D03*
X184150000Y-103505000D03*
X184150000Y-104775000D03*
X184150000Y-106045000D03*
X177800000Y-106045000D03*
X177800000Y-104775000D03*
X177800000Y-103505000D03*
X177800000Y-102235000D03*
X184150000Y-114300000D03*
X184150000Y-115570000D03*
X184150000Y-116840000D03*
X184150000Y-118110000D03*
X177800000Y-118110000D03*
X177800000Y-116840000D03*
X177800000Y-115570000D03*
X177800000Y-114300000D03*
X169545000Y-112395000D03*
X169545000Y-113665000D03*
X169545000Y-114935000D03*
X169545000Y-116205000D03*
X163195000Y-116205000D03*
X163195000Y-114935000D03*
X163195000Y-113665000D03*
X163195000Y-112395000D03*
D19*
X165417500Y-109728000D03*
X167322500Y-109728000D03*
X181927500Y-111760000D03*
X180022500Y-111760000D03*
X181927500Y-99695000D03*
X180022500Y-99695000D03*
X180022500Y-108585000D03*
X181927500Y-108585000D03*
X180022500Y-120650000D03*
X181927500Y-120650000D03*
X161607500Y-97790000D03*
X163512500Y-97790000D03*
X161607500Y-101600000D03*
X163512500Y-101600000D03*
X161607500Y-105410000D03*
X163512500Y-105410000D03*
X174942500Y-101600000D03*
X173037500Y-101600000D03*
X174942500Y-113665000D03*
X173037500Y-113665000D03*
X174942500Y-104140000D03*
X173037500Y-104140000D03*
X174942500Y-116205000D03*
X173037500Y-116205000D03*
X173037500Y-106680000D03*
X174942500Y-106680000D03*
X173037500Y-118745000D03*
X174942500Y-118745000D03*
D20*
X187325000Y-105092500D03*
X187325000Y-103187500D03*
X187325000Y-117157500D03*
X187325000Y-115252500D03*
D21*
X163195000Y-110744000D03*
X163195000Y-118999000D03*
X168656000Y-109728000D03*
X186436000Y-97663000D03*
X168910000Y-97663000D03*
X175006000Y-97663000D03*
X178435000Y-99695000D03*
X183134000Y-108331000D03*
X184150000Y-119507000D03*
X184150000Y-101219000D03*
X184277000Y-111760000D03*
X182626000Y-114300000D03*
X175006000Y-121920000D03*
X178816000Y-108585000D03*
X179832000Y-115824000D03*
X178562000Y-120650000D03*
D22*
X165417500Y-109728000D02*
X164211000Y-109728000D01*
X164211000Y-109728000D02*
X163195000Y-110744000D01*
X157480000Y-115570000D02*
X158877000Y-115570000D01*
X163195000Y-110744000D02*
X163195000Y-112395000D01*
X162306000Y-118999000D02*
X163195000Y-118999000D01*
X158877000Y-115570000D02*
X162306000Y-118999000D01*
X167322500Y-109728000D02*
X168656000Y-109728000D01*
X169545000Y-113665000D02*
X167894000Y-113665000D01*
X167322500Y-113093500D02*
X167322500Y-109728000D01*
X167894000Y-113665000D02*
X167322500Y-113093500D01*
X184912000Y-97619820D02*
X186392820Y-97619820D01*
X186392820Y-97619820D02*
X186436000Y-97663000D01*
X167640000Y-97619820D02*
X168866820Y-97619820D01*
X168866820Y-97619820D02*
X168910000Y-97663000D01*
X173990000Y-97619820D02*
X174962820Y-97619820D01*
X174962820Y-97619820D02*
X175006000Y-97663000D01*
X180022500Y-99695000D02*
X178435000Y-99695000D01*
X181927500Y-108585000D02*
X182880000Y-108585000D01*
X184150000Y-107315000D02*
X184150000Y-106045000D01*
X182880000Y-108585000D02*
X183134000Y-108331000D01*
X183134000Y-108331000D02*
X184150000Y-107315000D01*
X181927500Y-120650000D02*
X183007000Y-120650000D01*
X184150000Y-119507000D02*
X184150000Y-118110000D01*
X183007000Y-120650000D02*
X184150000Y-119507000D01*
X169545000Y-113665000D02*
X173037500Y-113665000D01*
X181927500Y-111760000D02*
X184277000Y-111760000D01*
X184150000Y-101219000D02*
X184150000Y-102235000D01*
X170180000Y-124460000D02*
X170180000Y-122301000D01*
X170561000Y-121920000D02*
X175006000Y-121920000D01*
X170180000Y-122301000D02*
X170561000Y-121920000D01*
X184150000Y-114300000D02*
X182626000Y-114300000D01*
X181927500Y-113601500D02*
X181927500Y-111760000D01*
X182626000Y-114300000D02*
X181927500Y-113601500D01*
X181927500Y-99695000D02*
X181927500Y-101663500D01*
X181927500Y-101663500D02*
X182499000Y-102235000D01*
X182499000Y-102235000D02*
X184150000Y-102235000D01*
X180022500Y-120650000D02*
X180022500Y-116014500D01*
X180022500Y-116014500D02*
X179832000Y-115824000D01*
X180022500Y-108585000D02*
X178816000Y-108585000D01*
X177800000Y-107569000D02*
X177800000Y-106045000D01*
X178816000Y-108585000D02*
X177800000Y-107569000D01*
X180022500Y-120650000D02*
X178562000Y-120650000D01*
X177800000Y-119888000D02*
X177800000Y-118110000D01*
X178562000Y-120650000D02*
X177800000Y-119888000D01*
D23*
X177800000Y-102235000D02*
X179832000Y-102235000D01*
X191770000Y-100330000D02*
X191770000Y-102235000D01*
X191008000Y-99568000D02*
X191770000Y-100330000D01*
X184404000Y-99568000D02*
X191008000Y-99568000D01*
X183134000Y-98298000D02*
X184404000Y-99568000D01*
X181229000Y-98298000D02*
X183134000Y-98298000D01*
X180975000Y-98552000D02*
X181229000Y-98298000D01*
X180975000Y-101092000D02*
X180975000Y-98552000D01*
X179832000Y-102235000D02*
X180975000Y-101092000D01*
D22*
X173037500Y-106680000D02*
X173037500Y-104140000D01*
D23*
X173037500Y-104140000D02*
X173037500Y-103060500D01*
X176784000Y-102235000D02*
X177800000Y-102235000D01*
X176530000Y-101981000D02*
X176784000Y-102235000D01*
X176530000Y-100584000D02*
X176530000Y-101981000D01*
X176276000Y-100330000D02*
X176530000Y-100584000D01*
X174244000Y-100330000D02*
X176276000Y-100330000D01*
X173990000Y-100584000D02*
X174244000Y-100330000D01*
X173990000Y-102616000D02*
X173990000Y-100584000D01*
X173736000Y-102870000D02*
X173990000Y-102616000D01*
X173228000Y-102870000D02*
X173736000Y-102870000D01*
X173037500Y-103060500D02*
X173228000Y-102870000D01*
X187325000Y-103187500D02*
X188277500Y-103187500D01*
X189865000Y-104775000D02*
X191770000Y-104775000D01*
X188277500Y-103187500D02*
X189865000Y-104775000D01*
D22*
X184150000Y-103505000D02*
X185420000Y-103505000D01*
X185737500Y-103187500D02*
X187325000Y-103187500D01*
X185420000Y-103505000D02*
X185737500Y-103187500D01*
D23*
X177800000Y-114300000D02*
X179832000Y-114300000D01*
X189230000Y-112268000D02*
X191770000Y-112268000D01*
X187325000Y-110363000D02*
X189230000Y-112268000D01*
X181356000Y-110363000D02*
X187325000Y-110363000D01*
X180975000Y-110744000D02*
X181356000Y-110363000D01*
X180975000Y-113157000D02*
X180975000Y-110744000D01*
X179832000Y-114300000D02*
X180975000Y-113157000D01*
X173037500Y-116205000D02*
X173037500Y-118745000D01*
X173037500Y-116205000D02*
X173037500Y-115125500D01*
X177800000Y-112649000D02*
X177800000Y-114300000D01*
X177419000Y-112268000D02*
X177800000Y-112649000D01*
X174244000Y-112268000D02*
X177419000Y-112268000D01*
X173990000Y-112522000D02*
X174244000Y-112268000D01*
X173990000Y-114681000D02*
X173990000Y-112522000D01*
X173736000Y-114935000D02*
X173990000Y-114681000D01*
X173228000Y-114935000D02*
X173736000Y-114935000D01*
X173037500Y-115125500D02*
X173228000Y-114935000D01*
X187325000Y-115252500D02*
X189293500Y-115252500D01*
X189738000Y-114808000D02*
X191770000Y-114808000D01*
X189293500Y-115252500D02*
X189738000Y-114808000D01*
X187325000Y-115252500D02*
X185864500Y-115252500D01*
X185547000Y-115570000D02*
X184150000Y-115570000D01*
X185864500Y-115252500D02*
X185547000Y-115570000D01*
X161607500Y-97790000D02*
X157480000Y-97790000D01*
X161607500Y-101600000D02*
X160655000Y-101600000D01*
X159385000Y-100330000D02*
X157480000Y-100330000D01*
X160655000Y-101600000D02*
X159385000Y-100330000D01*
X161607500Y-105410000D02*
X160528000Y-105410000D01*
X159385000Y-102870000D02*
X157480000Y-102870000D01*
X159893000Y-103378000D02*
X159385000Y-102870000D01*
X159893000Y-104775000D02*
X159893000Y-103378000D01*
X160528000Y-105410000D02*
X159893000Y-104775000D01*
X163195000Y-116205000D02*
X162179000Y-116205000D01*
X159893000Y-110490000D02*
X157480000Y-110490000D01*
X160401000Y-110998000D02*
X159893000Y-110490000D01*
X160401000Y-114427000D02*
X160401000Y-110998000D01*
X162179000Y-116205000D02*
X160401000Y-114427000D01*
X163195000Y-114935000D02*
X162052000Y-114935000D01*
X159893000Y-107950000D02*
X157480000Y-107950000D01*
X161036000Y-109093000D02*
X159893000Y-107950000D01*
X161036000Y-113919000D02*
X161036000Y-109093000D01*
X162052000Y-114935000D02*
X161036000Y-113919000D01*
X163195000Y-113665000D02*
X162052000Y-113665000D01*
X158750000Y-105410000D02*
X157480000Y-105410000D01*
X161671000Y-108331000D02*
X158750000Y-105410000D01*
X161671000Y-113284000D02*
X161671000Y-108331000D01*
X162052000Y-113665000D02*
X161671000Y-113284000D01*
X169545000Y-116205000D02*
X169545000Y-117221000D01*
X159004000Y-113030000D02*
X157480000Y-113030000D01*
X159385000Y-113411000D02*
X159004000Y-113030000D01*
X159385000Y-114681000D02*
X159385000Y-113411000D01*
X162306000Y-117602000D02*
X159385000Y-114681000D01*
X169164000Y-117602000D02*
X162306000Y-117602000D01*
X169545000Y-117221000D02*
X169164000Y-117602000D01*
D22*
X165100000Y-91440000D02*
X165100000Y-94996000D01*
X165100000Y-94996000D02*
X165524180Y-95420180D01*
X165524180Y-95420180D02*
X166687500Y-95420180D01*
X173990000Y-91440000D02*
X173990000Y-93218000D01*
X173037500Y-94170500D02*
X173037500Y-95420180D01*
X173990000Y-93218000D02*
X173037500Y-94170500D01*
X183959500Y-95420180D02*
X183959500Y-94424500D01*
X182880000Y-93345000D02*
X182880000Y-91440000D01*
X183959500Y-94424500D02*
X182880000Y-93345000D01*
D23*
X163512500Y-97790000D02*
X165481000Y-97790000D01*
X165481000Y-97790000D02*
X166751000Y-96520000D01*
X166751000Y-96520000D02*
X168275000Y-96520000D01*
X168275000Y-96520000D02*
X168592500Y-96202500D01*
X168592500Y-96202500D02*
X168592500Y-95420180D01*
X163512500Y-101600000D02*
X166878000Y-101600000D01*
X174942500Y-96202500D02*
X174942500Y-95420180D01*
X174625000Y-96520000D02*
X174942500Y-96202500D01*
X171958000Y-96520000D02*
X174625000Y-96520000D01*
X166878000Y-101600000D02*
X171958000Y-96520000D01*
X185864500Y-95420180D02*
X185864500Y-96329500D01*
X165227000Y-105410000D02*
X163512500Y-105410000D01*
X171323000Y-99314000D02*
X165227000Y-105410000D01*
X175895000Y-99314000D02*
X171323000Y-99314000D01*
X178689000Y-96520000D02*
X175895000Y-99314000D01*
X185674000Y-96520000D02*
X178689000Y-96520000D01*
X185864500Y-96329500D02*
X185674000Y-96520000D01*
D22*
X174942500Y-101600000D02*
X174942500Y-104140000D01*
X177800000Y-103505000D02*
X176784000Y-103505000D01*
X176149000Y-104140000D02*
X174942500Y-104140000D01*
X176784000Y-103505000D02*
X176149000Y-104140000D01*
D23*
X174942500Y-116205000D02*
X175895000Y-116205000D01*
X176530000Y-115570000D02*
X177800000Y-115570000D01*
X175895000Y-116205000D02*
X176530000Y-115570000D01*
X174942500Y-113665000D02*
X174942500Y-116205000D01*
X174942500Y-106680000D02*
X176149000Y-106680000D01*
X182118000Y-104775000D02*
X184150000Y-104775000D01*
X180975000Y-105918000D02*
X182118000Y-104775000D01*
X180975000Y-109601000D02*
X180975000Y-105918000D01*
X180467000Y-110109000D02*
X180975000Y-109601000D01*
X178689000Y-110109000D02*
X180467000Y-110109000D01*
X176657000Y-108077000D02*
X178689000Y-110109000D01*
X176657000Y-107188000D02*
X176657000Y-108077000D01*
X176149000Y-106680000D02*
X176657000Y-107188000D01*
D22*
X184150000Y-104775000D02*
X185547000Y-104775000D01*
X185864500Y-105092500D02*
X187325000Y-105092500D01*
X185547000Y-104775000D02*
X185864500Y-105092500D01*
D23*
X174942500Y-118745000D02*
X174942500Y-119951500D01*
X181610000Y-116840000D02*
X184150000Y-116840000D01*
X180975000Y-117475000D02*
X181610000Y-116840000D01*
X180975000Y-121539000D02*
X180975000Y-117475000D01*
X180340000Y-122174000D02*
X180975000Y-121539000D01*
X177165000Y-122174000D02*
X180340000Y-122174000D01*
X174942500Y-119951500D02*
X177165000Y-122174000D01*
X187325000Y-117157500D02*
X185864500Y-117157500D01*
X185547000Y-116840000D02*
X184150000Y-116840000D01*
X185864500Y-117157500D02*
X185547000Y-116840000D01*
X169545000Y-112395000D02*
X170688000Y-112395000D01*
X176657000Y-104775000D02*
X177800000Y-104775000D01*
X176022000Y-105410000D02*
X176657000Y-104775000D01*
X174244000Y-105410000D02*
X176022000Y-105410000D01*
X173990000Y-105664000D02*
X174244000Y-105410000D01*
X173990000Y-109093000D02*
X173990000Y-105664000D01*
X170688000Y-112395000D02*
X173990000Y-109093000D01*
X177800000Y-116840000D02*
X176657000Y-116840000D01*
X170688000Y-114935000D02*
X169545000Y-114935000D01*
X171196000Y-115443000D02*
X170688000Y-114935000D01*
X171196000Y-119380000D02*
X171196000Y-115443000D01*
X171831000Y-120015000D02*
X171196000Y-119380000D01*
X173736000Y-120015000D02*
X171831000Y-120015000D01*
X173990000Y-119761000D02*
X173736000Y-120015000D01*
X173990000Y-117729000D02*
X173990000Y-119761000D01*
X174244000Y-117475000D02*
X173990000Y-117729000D01*
X176022000Y-117475000D02*
X174244000Y-117475000D01*
X176657000Y-116840000D02*
X176022000Y-117475000D01*
G36*
X180169500Y-111887000D02*
X180149500Y-111887000D01*
X180149500Y-111907000D01*
X179895500Y-111907000D01*
X179895500Y-111887000D01*
X179101750Y-111887000D01*
X178943000Y-112045750D01*
X178943000Y-112332191D01*
X178943000Y-112584810D01*
X179039673Y-112818199D01*
X179218302Y-112996827D01*
X179451691Y-113093500D01*
X179736750Y-113093500D01*
X179895498Y-112934752D01*
X179895498Y-113093500D01*
X179895500Y-113093500D01*
X179960870Y-113093500D01*
X179895500Y-113158870D01*
X179516370Y-113538000D01*
X178761525Y-113538000D01*
X178731199Y-113507673D01*
X178562000Y-113437588D01*
X178562000Y-112649000D01*
X178503996Y-112357395D01*
X178338815Y-112110185D01*
X178338815Y-112110184D01*
X177957815Y-111729185D01*
X177710605Y-111564004D01*
X177419000Y-111506000D01*
X174244000Y-111506000D01*
X173952395Y-111564004D01*
X173705184Y-111729185D01*
X173451185Y-111983185D01*
X173286004Y-112230395D01*
X173251651Y-112403098D01*
X173251650Y-112403099D01*
X173164500Y-112490250D01*
X173164500Y-113538000D01*
X173184500Y-113538000D01*
X173184500Y-113792000D01*
X173164500Y-113792000D01*
X173164500Y-113812000D01*
X172910500Y-113812000D01*
X172910500Y-113792000D01*
X172910500Y-113538000D01*
X172910500Y-112490250D01*
X172751750Y-112331500D01*
X172466691Y-112331500D01*
X172233302Y-112428173D01*
X172054673Y-112606801D01*
X171958000Y-112840190D01*
X171958000Y-113092809D01*
X171958000Y-113379250D01*
X172116750Y-113538000D01*
X172910500Y-113538000D01*
X172910500Y-113792000D01*
X172116750Y-113792000D01*
X171958000Y-113950750D01*
X171958000Y-114237191D01*
X171958000Y-114489810D01*
X172054673Y-114723199D01*
X172233302Y-114901827D01*
X172313388Y-114935000D01*
X172233302Y-114968173D01*
X172054673Y-115146801D01*
X171958000Y-115380190D01*
X171958000Y-115443000D01*
X171899996Y-115151395D01*
X171734815Y-114904185D01*
X171734815Y-114904184D01*
X171226815Y-114396185D01*
X170979605Y-114231004D01*
X170697801Y-114174949D01*
X170751500Y-114045309D01*
X170751500Y-113950750D01*
X170592750Y-113792000D01*
X169672000Y-113792000D01*
X169672000Y-113812000D01*
X169418000Y-113812000D01*
X169418000Y-113792000D01*
X168497250Y-113792000D01*
X168338500Y-113950750D01*
X168338500Y-114045309D01*
X168435173Y-114278698D01*
X168456474Y-114299999D01*
X168435173Y-114321301D01*
X168338500Y-114554690D01*
X168338500Y-114807309D01*
X168338500Y-115315309D01*
X168435173Y-115548698D01*
X168456474Y-115569999D01*
X168435173Y-115591301D01*
X168338500Y-115824690D01*
X168338500Y-116077309D01*
X168338500Y-116585309D01*
X168435173Y-116818698D01*
X168456474Y-116840000D01*
X164283525Y-116840000D01*
X164304827Y-116818699D01*
X164401500Y-116585310D01*
X164401500Y-116332691D01*
X164401500Y-115824691D01*
X164304827Y-115591302D01*
X164283525Y-115570000D01*
X164304827Y-115548699D01*
X164401500Y-115315310D01*
X164401500Y-115062691D01*
X164401500Y-114554691D01*
X164304827Y-114321302D01*
X164283525Y-114300000D01*
X164304827Y-114278699D01*
X164401500Y-114045310D01*
X164401500Y-113792691D01*
X164401500Y-113284691D01*
X164304827Y-113051302D01*
X164283525Y-113030000D01*
X164304827Y-113008699D01*
X164401500Y-112775310D01*
X164401500Y-112522691D01*
X164401500Y-112014691D01*
X164304827Y-111781302D01*
X164126199Y-111602673D01*
X164033200Y-111564151D01*
X164033200Y-111378740D01*
X164077341Y-111334676D01*
X164236219Y-110952056D01*
X164236274Y-110888119D01*
X164406415Y-110717978D01*
X164434673Y-110786198D01*
X164613301Y-110964827D01*
X164846690Y-111061500D01*
X165099309Y-111061500D01*
X165988309Y-111061500D01*
X166221698Y-110964827D01*
X166370000Y-110816525D01*
X166518302Y-110964827D01*
X166751691Y-111061500D01*
X167036750Y-111061500D01*
X167195500Y-110902750D01*
X167195500Y-109855000D01*
X167175500Y-109855000D01*
X167175500Y-109601000D01*
X167195500Y-109601000D01*
X167195500Y-108553250D01*
X167036750Y-108394500D01*
X166751691Y-108394500D01*
X166518302Y-108491173D01*
X166369999Y-108639474D01*
X166221699Y-108491173D01*
X165988310Y-108394500D01*
X165735691Y-108394500D01*
X164846691Y-108394500D01*
X164613302Y-108491173D01*
X164434673Y-108669801D01*
X164343546Y-108889800D01*
X164211000Y-108889800D01*
X163890234Y-108953604D01*
X163618303Y-109135303D01*
X163051131Y-109702474D01*
X162988762Y-109702420D01*
X162605865Y-109860629D01*
X162433000Y-110033192D01*
X162433000Y-108331000D01*
X162374996Y-108039396D01*
X162374996Y-108039395D01*
X162209815Y-107792185D01*
X161161129Y-106743500D01*
X161289309Y-106743500D01*
X162178309Y-106743500D01*
X162411698Y-106646827D01*
X162560000Y-106498525D01*
X162708301Y-106646827D01*
X162941690Y-106743500D01*
X163194309Y-106743500D01*
X164083309Y-106743500D01*
X164316698Y-106646827D01*
X164495327Y-106468199D01*
X164592000Y-106234810D01*
X164592000Y-106172000D01*
X165227000Y-106172000D01*
X165227000Y-106171999D01*
X165518604Y-106113996D01*
X165518605Y-106113996D01*
X165765815Y-105948815D01*
X171638630Y-100076000D01*
X173430595Y-100076000D01*
X173286004Y-100292395D01*
X173283185Y-100306564D01*
X173164500Y-100425250D01*
X173164500Y-101473000D01*
X173184500Y-101473000D01*
X173184500Y-101727000D01*
X173164500Y-101727000D01*
X173164500Y-101747000D01*
X172910500Y-101747000D01*
X172910500Y-101727000D01*
X172910500Y-101473000D01*
X172910500Y-100425250D01*
X172751750Y-100266500D01*
X172466691Y-100266500D01*
X172233302Y-100363173D01*
X172054673Y-100541801D01*
X171958000Y-100775190D01*
X171958000Y-101027809D01*
X171958000Y-101314250D01*
X172116750Y-101473000D01*
X172910500Y-101473000D01*
X172910500Y-101727000D01*
X172116750Y-101727000D01*
X171958000Y-101885750D01*
X171958000Y-102172191D01*
X171958000Y-102424810D01*
X172054673Y-102658199D01*
X172233302Y-102836827D01*
X172313388Y-102870000D01*
X172233302Y-102903173D01*
X172054673Y-103081801D01*
X171958000Y-103315190D01*
X171958000Y-103567809D01*
X171958000Y-104964809D01*
X172054673Y-105198198D01*
X172199300Y-105342825D01*
X172199300Y-105477174D01*
X172054673Y-105621801D01*
X171958000Y-105855190D01*
X171958000Y-106107809D01*
X171958000Y-107504809D01*
X172054673Y-107738198D01*
X172233301Y-107916827D01*
X172466690Y-108013500D01*
X172719309Y-108013500D01*
X173228000Y-108013500D01*
X173228000Y-108777370D01*
X170424225Y-111581144D01*
X170242810Y-111506000D01*
X169990191Y-111506000D01*
X168847191Y-111506000D01*
X168613802Y-111602673D01*
X168435173Y-111781301D01*
X168402000Y-111861387D01*
X168402000Y-110552810D01*
X168402000Y-110300191D01*
X168402000Y-110013750D01*
X168402000Y-109442250D01*
X168402000Y-109155809D01*
X168402000Y-108903190D01*
X168305327Y-108669801D01*
X168126698Y-108491173D01*
X167893309Y-108394500D01*
X167608250Y-108394500D01*
X167449500Y-108553250D01*
X167449500Y-109601000D01*
X168243250Y-109601000D01*
X168402000Y-109442250D01*
X168402000Y-110013750D01*
X168243250Y-109855000D01*
X167449500Y-109855000D01*
X167449500Y-110902750D01*
X167608250Y-111061500D01*
X167893309Y-111061500D01*
X168126698Y-110964827D01*
X168305327Y-110786199D01*
X168402000Y-110552810D01*
X168402000Y-111861387D01*
X168338500Y-112014690D01*
X168338500Y-112267309D01*
X168338500Y-112775309D01*
X168435173Y-113008698D01*
X168456474Y-113030000D01*
X168435173Y-113051302D01*
X168338500Y-113284691D01*
X168338500Y-113379250D01*
X168497250Y-113538000D01*
X169418000Y-113538000D01*
X169418000Y-113518000D01*
X169672000Y-113518000D01*
X169672000Y-113538000D01*
X170592750Y-113538000D01*
X170751500Y-113379250D01*
X170751500Y-113284691D01*
X170697801Y-113155050D01*
X170979604Y-113098996D01*
X170979605Y-113098996D01*
X171226815Y-112933815D01*
X174528815Y-109631815D01*
X174693996Y-109384605D01*
X174751999Y-109093000D01*
X174752000Y-109093000D01*
X174752000Y-108013500D01*
X175513309Y-108013500D01*
X175746698Y-107916827D01*
X175895000Y-107768525D01*
X175895000Y-108077000D01*
X175953004Y-108368605D01*
X176118185Y-108615815D01*
X178150185Y-110647815D01*
X178397395Y-110812996D01*
X178397396Y-110812996D01*
X178689000Y-110871000D01*
X178969588Y-110871000D01*
X178943000Y-110935190D01*
X178943000Y-111187809D01*
X178943000Y-111474250D01*
X179101750Y-111633000D01*
X179895500Y-111633000D01*
X179895500Y-111613000D01*
X180149500Y-111613000D01*
X180149500Y-111633000D01*
X180169500Y-111633000D01*
X180169500Y-111887000D01*
X180169500Y-111887000D01*
G37*
X180169500Y-111887000D02*
X180149500Y-111887000D01*
X180149500Y-111907000D01*
X179895500Y-111907000D01*
X179895500Y-111887000D01*
X179101750Y-111887000D01*
X178943000Y-112045750D01*
X178943000Y-112332191D01*
X178943000Y-112584810D01*
X179039673Y-112818199D01*
X179218302Y-112996827D01*
X179451691Y-113093500D01*
X179736750Y-113093500D01*
X179895498Y-112934752D01*
X179895498Y-113093500D01*
X179895500Y-113093500D01*
X179960870Y-113093500D01*
X179895500Y-113158870D01*
X179516370Y-113538000D01*
X178761525Y-113538000D01*
X178731199Y-113507673D01*
X178562000Y-113437588D01*
X178562000Y-112649000D01*
X178503996Y-112357395D01*
X178338815Y-112110185D01*
X178338815Y-112110184D01*
X177957815Y-111729185D01*
X177710605Y-111564004D01*
X177419000Y-111506000D01*
X174244000Y-111506000D01*
X173952395Y-111564004D01*
X173705184Y-111729185D01*
X173451185Y-111983185D01*
X173286004Y-112230395D01*
X173251651Y-112403098D01*
X173251650Y-112403099D01*
X173164500Y-112490250D01*
X173164500Y-113538000D01*
X173184500Y-113538000D01*
X173184500Y-113792000D01*
X173164500Y-113792000D01*
X173164500Y-113812000D01*
X172910500Y-113812000D01*
X172910500Y-113792000D01*
X172910500Y-113538000D01*
X172910500Y-112490250D01*
X172751750Y-112331500D01*
X172466691Y-112331500D01*
X172233302Y-112428173D01*
X172054673Y-112606801D01*
X171958000Y-112840190D01*
X171958000Y-113092809D01*
X171958000Y-113379250D01*
X172116750Y-113538000D01*
X172910500Y-113538000D01*
X172910500Y-113792000D01*
X172116750Y-113792000D01*
X171958000Y-113950750D01*
X171958000Y-114237191D01*
X171958000Y-114489810D01*
X172054673Y-114723199D01*
X172233302Y-114901827D01*
X172313388Y-114935000D01*
X172233302Y-114968173D01*
X172054673Y-115146801D01*
X171958000Y-115380190D01*
X171958000Y-115443000D01*
X171899996Y-115151395D01*
X171734815Y-114904185D01*
X171734815Y-114904184D01*
X171226815Y-114396185D01*
X170979605Y-114231004D01*
X170697801Y-114174949D01*
X170751500Y-114045309D01*
X170751500Y-113950750D01*
X170592750Y-113792000D01*
X169672000Y-113792000D01*
X169672000Y-113812000D01*
X169418000Y-113812000D01*
X169418000Y-113792000D01*
X168497250Y-113792000D01*
X168338500Y-113950750D01*
X168338500Y-114045309D01*
X168435173Y-114278698D01*
X168456474Y-114299999D01*
X168435173Y-114321301D01*
X168338500Y-114554690D01*
X168338500Y-114807309D01*
X168338500Y-115315309D01*
X168435173Y-115548698D01*
X168456474Y-115569999D01*
X168435173Y-115591301D01*
X168338500Y-115824690D01*
X168338500Y-116077309D01*
X168338500Y-116585309D01*
X168435173Y-116818698D01*
X168456474Y-116840000D01*
X164283525Y-116840000D01*
X164304827Y-116818699D01*
X164401500Y-116585310D01*
X164401500Y-116332691D01*
X164401500Y-115824691D01*
X164304827Y-115591302D01*
X164283525Y-115570000D01*
X164304827Y-115548699D01*
X164401500Y-115315310D01*
X164401500Y-115062691D01*
X164401500Y-114554691D01*
X164304827Y-114321302D01*
X164283525Y-114300000D01*
X164304827Y-114278699D01*
X164401500Y-114045310D01*
X164401500Y-113792691D01*
X164401500Y-113284691D01*
X164304827Y-113051302D01*
X164283525Y-113030000D01*
X164304827Y-113008699D01*
X164401500Y-112775310D01*
X164401500Y-112522691D01*
X164401500Y-112014691D01*
X164304827Y-111781302D01*
X164126199Y-111602673D01*
X164033200Y-111564151D01*
X164033200Y-111378740D01*
X164077341Y-111334676D01*
X164236219Y-110952056D01*
X164236274Y-110888119D01*
X164406415Y-110717978D01*
X164434673Y-110786198D01*
X164613301Y-110964827D01*
X164846690Y-111061500D01*
X165099309Y-111061500D01*
X165988309Y-111061500D01*
X166221698Y-110964827D01*
X166370000Y-110816525D01*
X166518302Y-110964827D01*
X166751691Y-111061500D01*
X167036750Y-111061500D01*
X167195500Y-110902750D01*
X167195500Y-109855000D01*
X167175500Y-109855000D01*
X167175500Y-109601000D01*
X167195500Y-109601000D01*
X167195500Y-108553250D01*
X167036750Y-108394500D01*
X166751691Y-108394500D01*
X166518302Y-108491173D01*
X166369999Y-108639474D01*
X166221699Y-108491173D01*
X165988310Y-108394500D01*
X165735691Y-108394500D01*
X164846691Y-108394500D01*
X164613302Y-108491173D01*
X164434673Y-108669801D01*
X164343546Y-108889800D01*
X164211000Y-108889800D01*
X163890234Y-108953604D01*
X163618303Y-109135303D01*
X163051131Y-109702474D01*
X162988762Y-109702420D01*
X162605865Y-109860629D01*
X162433000Y-110033192D01*
X162433000Y-108331000D01*
X162374996Y-108039396D01*
X162374996Y-108039395D01*
X162209815Y-107792185D01*
X161161129Y-106743500D01*
X161289309Y-106743500D01*
X162178309Y-106743500D01*
X162411698Y-106646827D01*
X162560000Y-106498525D01*
X162708301Y-106646827D01*
X162941690Y-106743500D01*
X163194309Y-106743500D01*
X164083309Y-106743500D01*
X164316698Y-106646827D01*
X164495327Y-106468199D01*
X164592000Y-106234810D01*
X164592000Y-106172000D01*
X165227000Y-106172000D01*
X165227000Y-106171999D01*
X165518604Y-106113996D01*
X165518605Y-106113996D01*
X165765815Y-105948815D01*
X171638630Y-100076000D01*
X173430595Y-100076000D01*
X173286004Y-100292395D01*
X173283185Y-100306564D01*
X173164500Y-100425250D01*
X173164500Y-101473000D01*
X173184500Y-101473000D01*
X173184500Y-101727000D01*
X173164500Y-101727000D01*
X173164500Y-101747000D01*
X172910500Y-101747000D01*
X172910500Y-101727000D01*
X172910500Y-101473000D01*
X172910500Y-100425250D01*
X172751750Y-100266500D01*
X172466691Y-100266500D01*
X172233302Y-100363173D01*
X172054673Y-100541801D01*
X171958000Y-100775190D01*
X171958000Y-101027809D01*
X171958000Y-101314250D01*
X172116750Y-101473000D01*
X172910500Y-101473000D01*
X172910500Y-101727000D01*
X172116750Y-101727000D01*
X171958000Y-101885750D01*
X171958000Y-102172191D01*
X171958000Y-102424810D01*
X172054673Y-102658199D01*
X172233302Y-102836827D01*
X172313388Y-102870000D01*
X172233302Y-102903173D01*
X172054673Y-103081801D01*
X171958000Y-103315190D01*
X171958000Y-103567809D01*
X171958000Y-104964809D01*
X172054673Y-105198198D01*
X172199300Y-105342825D01*
X172199300Y-105477174D01*
X172054673Y-105621801D01*
X171958000Y-105855190D01*
X171958000Y-106107809D01*
X171958000Y-107504809D01*
X172054673Y-107738198D01*
X172233301Y-107916827D01*
X172466690Y-108013500D01*
X172719309Y-108013500D01*
X173228000Y-108013500D01*
X173228000Y-108777370D01*
X170424225Y-111581144D01*
X170242810Y-111506000D01*
X169990191Y-111506000D01*
X168847191Y-111506000D01*
X168613802Y-111602673D01*
X168435173Y-111781301D01*
X168402000Y-111861387D01*
X168402000Y-110552810D01*
X168402000Y-110300191D01*
X168402000Y-110013750D01*
X168402000Y-109442250D01*
X168402000Y-109155809D01*
X168402000Y-108903190D01*
X168305327Y-108669801D01*
X168126698Y-108491173D01*
X167893309Y-108394500D01*
X167608250Y-108394500D01*
X167449500Y-108553250D01*
X167449500Y-109601000D01*
X168243250Y-109601000D01*
X168402000Y-109442250D01*
X168402000Y-110013750D01*
X168243250Y-109855000D01*
X167449500Y-109855000D01*
X167449500Y-110902750D01*
X167608250Y-111061500D01*
X167893309Y-111061500D01*
X168126698Y-110964827D01*
X168305327Y-110786199D01*
X168402000Y-110552810D01*
X168402000Y-111861387D01*
X168338500Y-112014690D01*
X168338500Y-112267309D01*
X168338500Y-112775309D01*
X168435173Y-113008698D01*
X168456474Y-113030000D01*
X168435173Y-113051302D01*
X168338500Y-113284691D01*
X168338500Y-113379250D01*
X168497250Y-113538000D01*
X169418000Y-113538000D01*
X169418000Y-113518000D01*
X169672000Y-113518000D01*
X169672000Y-113538000D01*
X170592750Y-113538000D01*
X170751500Y-113379250D01*
X170751500Y-113284691D01*
X170697801Y-113155050D01*
X170979604Y-113098996D01*
X170979605Y-113098996D01*
X171226815Y-112933815D01*
X174528815Y-109631815D01*
X174693996Y-109384605D01*
X174751999Y-109093000D01*
X174752000Y-109093000D01*
X174752000Y-108013500D01*
X175513309Y-108013500D01*
X175746698Y-107916827D01*
X175895000Y-107768525D01*
X175895000Y-108077000D01*
X175953004Y-108368605D01*
X176118185Y-108615815D01*
X178150185Y-110647815D01*
X178397395Y-110812996D01*
X178397396Y-110812996D01*
X178689000Y-110871000D01*
X178969588Y-110871000D01*
X178943000Y-110935190D01*
X178943000Y-111187809D01*
X178943000Y-111474250D01*
X179101750Y-111633000D01*
X179895500Y-111633000D01*
X179895500Y-111613000D01*
X180149500Y-111613000D01*
X180149500Y-111633000D01*
X180169500Y-111633000D01*
X180169500Y-111887000D01*
G36*
X196140000Y-127560000D02*
X195175240Y-127560000D01*
X195175240Y-124037211D01*
X195175240Y-91017211D01*
X194850910Y-90232273D01*
X194250886Y-89631200D01*
X193466515Y-89305501D01*
X192617211Y-89304760D01*
X191832273Y-89629090D01*
X191231200Y-90229114D01*
X190905501Y-91013485D01*
X190904760Y-91862789D01*
X191229090Y-92647727D01*
X191829114Y-93248800D01*
X192613485Y-93574499D01*
X193462789Y-93575240D01*
X194247727Y-93250910D01*
X194848800Y-92650886D01*
X195174499Y-91866515D01*
X195175240Y-91017211D01*
X195175240Y-124037211D01*
X194850910Y-123252273D01*
X194250886Y-122651200D01*
X193466515Y-122325501D01*
X193453345Y-122325489D01*
X193453345Y-114808000D01*
X193339271Y-114234511D01*
X193014415Y-113748330D01*
X192992219Y-113733499D01*
X193145698Y-113669927D01*
X193324327Y-113491299D01*
X193421000Y-113257910D01*
X193421000Y-113005291D01*
X193421000Y-111278091D01*
X193377358Y-111172730D01*
X193377358Y-107674026D01*
X193256217Y-107442000D01*
X191897000Y-107442000D01*
X191897000Y-108655924D01*
X192131913Y-108800184D01*
X192684320Y-108606954D01*
X193120732Y-108217036D01*
X193374709Y-107689791D01*
X193377358Y-107674026D01*
X193377358Y-111172730D01*
X193324327Y-111044702D01*
X193145699Y-110866073D01*
X192912310Y-110769400D01*
X192659691Y-110769400D01*
X191643000Y-110769400D01*
X191643000Y-108655924D01*
X191643000Y-107442000D01*
X190283783Y-107442000D01*
X190162642Y-107674026D01*
X190165291Y-107689791D01*
X190419268Y-108217036D01*
X190855680Y-108606954D01*
X191408087Y-108800184D01*
X191643000Y-108655924D01*
X191643000Y-110769400D01*
X190627691Y-110769400D01*
X190394302Y-110866073D01*
X190215673Y-111044701D01*
X190119000Y-111278090D01*
X190119000Y-111506000D01*
X189545630Y-111506000D01*
X187863815Y-109824185D01*
X187616605Y-109659004D01*
X187325000Y-109601000D01*
X185356500Y-109601000D01*
X185356500Y-106425309D01*
X185356500Y-106330750D01*
X185197750Y-106172000D01*
X184277000Y-106172000D01*
X184277000Y-106775250D01*
X184435750Y-106934000D01*
X184595191Y-106934000D01*
X184847810Y-106934000D01*
X185081199Y-106837327D01*
X185259827Y-106658698D01*
X185356500Y-106425309D01*
X185356500Y-109601000D01*
X184023000Y-109601000D01*
X184023000Y-106775250D01*
X184023000Y-106172000D01*
X183102250Y-106172000D01*
X182943500Y-106330750D01*
X182943500Y-106425309D01*
X183040173Y-106658698D01*
X183218801Y-106837327D01*
X183452190Y-106934000D01*
X183704809Y-106934000D01*
X183864250Y-106934000D01*
X184023000Y-106775250D01*
X184023000Y-109601000D01*
X182927806Y-109601000D01*
X183007000Y-109409810D01*
X183007000Y-109157191D01*
X183007000Y-108870750D01*
X183007000Y-108299250D01*
X183007000Y-108012809D01*
X183007000Y-107760190D01*
X182910327Y-107526801D01*
X182731698Y-107348173D01*
X182498309Y-107251500D01*
X182213250Y-107251500D01*
X182054500Y-107410250D01*
X182054500Y-108458000D01*
X182848250Y-108458000D01*
X183007000Y-108299250D01*
X183007000Y-108870750D01*
X182848250Y-108712000D01*
X182054500Y-108712000D01*
X182054500Y-108732000D01*
X181800500Y-108732000D01*
X181800500Y-108712000D01*
X181780500Y-108712000D01*
X181780500Y-108458000D01*
X181800500Y-108458000D01*
X181800500Y-107410250D01*
X181737000Y-107346750D01*
X181737000Y-106233630D01*
X182433630Y-105537000D01*
X182996391Y-105537000D01*
X182943500Y-105664691D01*
X182943500Y-105759250D01*
X183102250Y-105918000D01*
X184023000Y-105918000D01*
X184023000Y-105898000D01*
X184277000Y-105898000D01*
X184277000Y-105918000D01*
X185197750Y-105918000D01*
X185356500Y-105759250D01*
X185356500Y-105741789D01*
X185543735Y-105866896D01*
X185864500Y-105930700D01*
X186122174Y-105930700D01*
X186266801Y-106075327D01*
X186500190Y-106172000D01*
X186752809Y-106172000D01*
X188149809Y-106172000D01*
X188383198Y-106075327D01*
X188561827Y-105896699D01*
X188658500Y-105663310D01*
X188658500Y-105410691D01*
X188658500Y-104646130D01*
X189326185Y-105313815D01*
X189573395Y-105478996D01*
X189573396Y-105478996D01*
X189865000Y-105537000D01*
X190326688Y-105537000D01*
X190525585Y-105834670D01*
X190835069Y-106041460D01*
X190419268Y-106412964D01*
X190165291Y-106940209D01*
X190162642Y-106955974D01*
X190283783Y-107188000D01*
X191643000Y-107188000D01*
X191643000Y-107168000D01*
X191897000Y-107168000D01*
X191897000Y-107188000D01*
X193256217Y-107188000D01*
X193377358Y-106955974D01*
X193374709Y-106940209D01*
X193120732Y-106412964D01*
X192704930Y-106041460D01*
X193014415Y-105834670D01*
X193339271Y-105348489D01*
X193453345Y-104775000D01*
X193339271Y-104201511D01*
X193014415Y-103715330D01*
X192992219Y-103700499D01*
X193145698Y-103636927D01*
X193324327Y-103458299D01*
X193421000Y-103224910D01*
X193421000Y-102972291D01*
X193421000Y-101245091D01*
X193324327Y-101011702D01*
X193145699Y-100833073D01*
X192912310Y-100736400D01*
X192659691Y-100736400D01*
X192532000Y-100736400D01*
X192532000Y-100330000D01*
X192473996Y-100038396D01*
X192473996Y-100038395D01*
X192407834Y-99939376D01*
X192308816Y-99791185D01*
X191546815Y-99029185D01*
X191299605Y-98864004D01*
X191008000Y-98806000D01*
X187025975Y-98806000D01*
X187025975Y-91822944D01*
X187025975Y-91057056D01*
X186826385Y-90575182D01*
X186388379Y-90102812D01*
X185802946Y-89834017D01*
X185547000Y-89952633D01*
X185547000Y-91313000D01*
X186906836Y-91313000D01*
X187025975Y-91057056D01*
X187025975Y-91822944D01*
X186906836Y-91567000D01*
X185547000Y-91567000D01*
X185547000Y-92927367D01*
X185802946Y-93045983D01*
X186388379Y-92777188D01*
X186826385Y-92304818D01*
X187025975Y-91822944D01*
X187025975Y-98806000D01*
X185947050Y-98806000D01*
X185947050Y-98246510D01*
X185947050Y-97993891D01*
X185947050Y-97905570D01*
X185788300Y-97746820D01*
X185039000Y-97746820D01*
X185039000Y-98596450D01*
X185197750Y-98755200D01*
X185438359Y-98755200D01*
X185671748Y-98658527D01*
X185850377Y-98479899D01*
X185947050Y-98246510D01*
X185947050Y-98806000D01*
X184719630Y-98806000D01*
X184647540Y-98733909D01*
X184785000Y-98596450D01*
X184785000Y-97746820D01*
X184035700Y-97746820D01*
X183876950Y-97905570D01*
X183876950Y-97963319D01*
X183672815Y-97759185D01*
X183425605Y-97594004D01*
X183134000Y-97536000D01*
X181229000Y-97536000D01*
X180937395Y-97594004D01*
X180690184Y-97759185D01*
X180436185Y-98013185D01*
X180271004Y-98260395D01*
X180236651Y-98433098D01*
X180236650Y-98433099D01*
X180149500Y-98520250D01*
X180149500Y-99568000D01*
X180169500Y-99568000D01*
X180169500Y-99822000D01*
X180149500Y-99822000D01*
X180149500Y-99842000D01*
X179895500Y-99842000D01*
X179895500Y-99822000D01*
X179895500Y-99568000D01*
X179895500Y-98520250D01*
X179736750Y-98361500D01*
X179451691Y-98361500D01*
X179218302Y-98458173D01*
X179039673Y-98636801D01*
X178943000Y-98870190D01*
X178943000Y-99122809D01*
X178943000Y-99409250D01*
X179101750Y-99568000D01*
X179895500Y-99568000D01*
X179895500Y-99822000D01*
X179101750Y-99822000D01*
X178943000Y-99980750D01*
X178943000Y-100267191D01*
X178943000Y-100519810D01*
X179039673Y-100753199D01*
X179218302Y-100931827D01*
X179451691Y-101028500D01*
X179736750Y-101028500D01*
X179895498Y-100869752D01*
X179895498Y-101028500D01*
X179895500Y-101028500D01*
X179960870Y-101028500D01*
X179895500Y-101093870D01*
X179516370Y-101473000D01*
X178761525Y-101473000D01*
X178731199Y-101442673D01*
X178497810Y-101346000D01*
X178245191Y-101346000D01*
X177292000Y-101346000D01*
X177292000Y-100584000D01*
X177233996Y-100292395D01*
X177068815Y-100045185D01*
X177068815Y-100045184D01*
X176814815Y-99791185D01*
X176623366Y-99663263D01*
X179004630Y-97282000D01*
X183876950Y-97282000D01*
X183876950Y-97334070D01*
X184035700Y-97492820D01*
X184785000Y-97492820D01*
X184785000Y-97472820D01*
X185039000Y-97472820D01*
X185039000Y-97492820D01*
X185788300Y-97492820D01*
X185947050Y-97334070D01*
X185947050Y-97245749D01*
X185947050Y-97227686D01*
X185965604Y-97223996D01*
X185965605Y-97223996D01*
X186212815Y-97058815D01*
X186403315Y-96868315D01*
X186403316Y-96868315D01*
X186502334Y-96720123D01*
X186568496Y-96621105D01*
X186568496Y-96621104D01*
X186598654Y-96469488D01*
X186624248Y-96458887D01*
X186802877Y-96280259D01*
X186899550Y-96046870D01*
X186899550Y-95794251D01*
X186899550Y-94793491D01*
X186802877Y-94560102D01*
X186624249Y-94381473D01*
X186390860Y-94284800D01*
X186138241Y-94284800D01*
X185338141Y-94284800D01*
X185104752Y-94381473D01*
X184926123Y-94560101D01*
X184911999Y-94594197D01*
X184897877Y-94560102D01*
X184797700Y-94459924D01*
X184797700Y-94424500D01*
X184733896Y-94103735D01*
X184552197Y-93831803D01*
X183811394Y-93091000D01*
X184022309Y-93091000D01*
X184255698Y-92994327D01*
X184434327Y-92815699D01*
X184450693Y-92776187D01*
X184451621Y-92777188D01*
X185037054Y-93045983D01*
X185293000Y-92927367D01*
X185293000Y-91567000D01*
X185273000Y-91567000D01*
X185273000Y-91313000D01*
X185293000Y-91313000D01*
X185293000Y-89952633D01*
X185037054Y-89834017D01*
X184451621Y-90102812D01*
X184450692Y-90103812D01*
X184434327Y-90064302D01*
X184255699Y-89885673D01*
X184022310Y-89789000D01*
X183769691Y-89789000D01*
X181737691Y-89789000D01*
X181504302Y-89885673D01*
X181325673Y-90064301D01*
X181229000Y-90297690D01*
X181229000Y-90550309D01*
X181229000Y-92582309D01*
X181325673Y-92815698D01*
X181504301Y-92994327D01*
X181737690Y-93091000D01*
X181990309Y-93091000D01*
X182041800Y-93091000D01*
X182041800Y-93345000D01*
X182105604Y-93665766D01*
X182287303Y-93937697D01*
X182988489Y-94638883D01*
X182924450Y-94793490D01*
X182924450Y-95046109D01*
X182924450Y-95758000D01*
X178689000Y-95758000D01*
X178397395Y-95816004D01*
X178298376Y-95882165D01*
X178150185Y-95981184D01*
X178135975Y-95995394D01*
X178135975Y-91822944D01*
X178135975Y-91057056D01*
X177936385Y-90575182D01*
X177498379Y-90102812D01*
X176912946Y-89834017D01*
X176657000Y-89952633D01*
X176657000Y-91313000D01*
X178016836Y-91313000D01*
X178135975Y-91057056D01*
X178135975Y-91822944D01*
X178016836Y-91567000D01*
X176657000Y-91567000D01*
X176657000Y-92927367D01*
X176912946Y-93045983D01*
X177498379Y-92777188D01*
X177936385Y-92304818D01*
X178135975Y-91822944D01*
X178135975Y-95995394D01*
X175579369Y-98552000D01*
X174856275Y-98552000D01*
X174928377Y-98479899D01*
X175025050Y-98246510D01*
X175025050Y-97993891D01*
X175025050Y-97905570D01*
X174866300Y-97746820D01*
X174117000Y-97746820D01*
X174117000Y-97766820D01*
X173863000Y-97766820D01*
X173863000Y-97746820D01*
X173113700Y-97746820D01*
X172954950Y-97905570D01*
X172954950Y-97993891D01*
X172954950Y-98246510D01*
X173051623Y-98479899D01*
X173123724Y-98552000D01*
X171323000Y-98552000D01*
X171031395Y-98610004D01*
X170784185Y-98775185D01*
X164911370Y-104648000D01*
X164592000Y-104648000D01*
X164592000Y-104585191D01*
X164495327Y-104351802D01*
X164316699Y-104173173D01*
X164083310Y-104076500D01*
X163830691Y-104076500D01*
X162941691Y-104076500D01*
X162708302Y-104173173D01*
X162559999Y-104321474D01*
X162411699Y-104173173D01*
X162178310Y-104076500D01*
X161925691Y-104076500D01*
X161036691Y-104076500D01*
X160803302Y-104173173D01*
X160655000Y-104321474D01*
X160655000Y-103378000D01*
X160596996Y-103086395D01*
X160431815Y-102839185D01*
X160431815Y-102839184D01*
X159923815Y-102331185D01*
X159676605Y-102166004D01*
X159385000Y-102108000D01*
X158923311Y-102108000D01*
X158724415Y-101810330D01*
X158409634Y-101600000D01*
X158724415Y-101389670D01*
X158923311Y-101092000D01*
X159069369Y-101092000D01*
X160116184Y-102138815D01*
X160116185Y-102138815D01*
X160363395Y-102303996D01*
X160528000Y-102336738D01*
X160528000Y-102424809D01*
X160624673Y-102658198D01*
X160803301Y-102836827D01*
X161036690Y-102933500D01*
X161289309Y-102933500D01*
X162178309Y-102933500D01*
X162411698Y-102836827D01*
X162560000Y-102688525D01*
X162708301Y-102836827D01*
X162941690Y-102933500D01*
X163194309Y-102933500D01*
X164083309Y-102933500D01*
X164316698Y-102836827D01*
X164495327Y-102658199D01*
X164592000Y-102424810D01*
X164592000Y-102362000D01*
X166878000Y-102362000D01*
X166878000Y-102361999D01*
X167169604Y-102303996D01*
X167169605Y-102303996D01*
X167416815Y-102138815D01*
X172273630Y-97282000D01*
X172954950Y-97282000D01*
X172954950Y-97334070D01*
X173113700Y-97492820D01*
X173863000Y-97492820D01*
X173863000Y-97472820D01*
X174117000Y-97472820D01*
X174117000Y-97492820D01*
X174866300Y-97492820D01*
X175025050Y-97334070D01*
X175025050Y-97245749D01*
X175025050Y-97151535D01*
X175025050Y-97151534D01*
X175163815Y-97058815D01*
X175481315Y-96741315D01*
X175481316Y-96741315D01*
X175580334Y-96593123D01*
X175646496Y-96494105D01*
X175646496Y-96494104D01*
X175649124Y-96480891D01*
X175702248Y-96458887D01*
X175880877Y-96280259D01*
X175977550Y-96046870D01*
X175977550Y-95794251D01*
X175977550Y-94793491D01*
X175880877Y-94560102D01*
X175702249Y-94381473D01*
X175468860Y-94284800D01*
X175216241Y-94284800D01*
X174416141Y-94284800D01*
X174182752Y-94381473D01*
X174004123Y-94560101D01*
X173989999Y-94594197D01*
X173975877Y-94560102D01*
X173904584Y-94488809D01*
X174582697Y-93810697D01*
X174764395Y-93538766D01*
X174764396Y-93538765D01*
X174828200Y-93218000D01*
X174828200Y-93091000D01*
X175132309Y-93091000D01*
X175365698Y-92994327D01*
X175544327Y-92815699D01*
X175560693Y-92776187D01*
X175561621Y-92777188D01*
X176147054Y-93045983D01*
X176403000Y-92927367D01*
X176403000Y-91567000D01*
X176383000Y-91567000D01*
X176383000Y-91313000D01*
X176403000Y-91313000D01*
X176403000Y-89952633D01*
X176147054Y-89834017D01*
X175561621Y-90102812D01*
X175560692Y-90103812D01*
X175544327Y-90064302D01*
X175365699Y-89885673D01*
X175132310Y-89789000D01*
X174879691Y-89789000D01*
X172847691Y-89789000D01*
X172614302Y-89885673D01*
X172435673Y-90064301D01*
X172339000Y-90297690D01*
X172339000Y-90550309D01*
X172339000Y-92582309D01*
X172435673Y-92815698D01*
X172614301Y-92994327D01*
X172847690Y-93091000D01*
X172931606Y-93091000D01*
X172444803Y-93577803D01*
X172263104Y-93849734D01*
X172199300Y-94170500D01*
X172199300Y-94459924D01*
X172099123Y-94560101D01*
X172002450Y-94793490D01*
X172002450Y-95046109D01*
X172002450Y-95758000D01*
X171958000Y-95758000D01*
X171666395Y-95816004D01*
X171419185Y-95981185D01*
X168675050Y-98725320D01*
X168675050Y-98246510D01*
X168675050Y-97993891D01*
X168675050Y-97905570D01*
X168516300Y-97746820D01*
X167767000Y-97746820D01*
X167767000Y-98596450D01*
X167925750Y-98755200D01*
X168166359Y-98755200D01*
X168399748Y-98658527D01*
X168578377Y-98479899D01*
X168675050Y-98246510D01*
X168675050Y-98725320D01*
X167513000Y-99887370D01*
X166562370Y-100838000D01*
X164592000Y-100838000D01*
X164592000Y-100775191D01*
X164495327Y-100541802D01*
X164316699Y-100363173D01*
X164083310Y-100266500D01*
X163830691Y-100266500D01*
X162941691Y-100266500D01*
X162708302Y-100363173D01*
X162559999Y-100511474D01*
X162411699Y-100363173D01*
X162178310Y-100266500D01*
X161925691Y-100266500D01*
X161036691Y-100266500D01*
X160803302Y-100363173D01*
X160649552Y-100516921D01*
X159923815Y-99791185D01*
X159676605Y-99626004D01*
X159385000Y-99568000D01*
X158923311Y-99568000D01*
X158724415Y-99270330D01*
X158702219Y-99255499D01*
X158855698Y-99191927D01*
X159034327Y-99013299D01*
X159131000Y-98779910D01*
X159131000Y-98552000D01*
X160528000Y-98552000D01*
X160528000Y-98614809D01*
X160624673Y-98848198D01*
X160803301Y-99026827D01*
X161036690Y-99123500D01*
X161289309Y-99123500D01*
X162178309Y-99123500D01*
X162411698Y-99026827D01*
X162560000Y-98878525D01*
X162708301Y-99026827D01*
X162941690Y-99123500D01*
X163194309Y-99123500D01*
X164083309Y-99123500D01*
X164316698Y-99026827D01*
X164495327Y-98848199D01*
X164592000Y-98614810D01*
X164592000Y-98552000D01*
X165481000Y-98552000D01*
X165481000Y-98551999D01*
X165772604Y-98493996D01*
X165772605Y-98493996D01*
X166019815Y-98328815D01*
X166604950Y-97743680D01*
X166604950Y-97746822D01*
X166763698Y-97746822D01*
X166604950Y-97905570D01*
X166604950Y-97993891D01*
X166604950Y-98246510D01*
X166701623Y-98479899D01*
X166880252Y-98658527D01*
X167113641Y-98755200D01*
X167354250Y-98755200D01*
X167513000Y-98596450D01*
X167513000Y-97746820D01*
X167493000Y-97746820D01*
X167493000Y-97492820D01*
X167513000Y-97492820D01*
X167513000Y-97472820D01*
X167767000Y-97472820D01*
X167767000Y-97492820D01*
X168516300Y-97492820D01*
X168675050Y-97334070D01*
X168675050Y-97245749D01*
X168675050Y-97151535D01*
X168675050Y-97151534D01*
X168813815Y-97058815D01*
X169131315Y-96741315D01*
X169131316Y-96741315D01*
X169230334Y-96593123D01*
X169296496Y-96494105D01*
X169296496Y-96494104D01*
X169299124Y-96480891D01*
X169352248Y-96458887D01*
X169530877Y-96280259D01*
X169627550Y-96046870D01*
X169627550Y-95794251D01*
X169627550Y-94793491D01*
X169530877Y-94560102D01*
X169352249Y-94381473D01*
X169245975Y-94337452D01*
X169245975Y-91822944D01*
X169245975Y-91057056D01*
X169046385Y-90575182D01*
X168608379Y-90102812D01*
X168022946Y-89834017D01*
X167767000Y-89952633D01*
X167767000Y-91313000D01*
X169126836Y-91313000D01*
X169245975Y-91057056D01*
X169245975Y-91822944D01*
X169126836Y-91567000D01*
X167767000Y-91567000D01*
X167767000Y-92927367D01*
X168022946Y-93045983D01*
X168608379Y-92777188D01*
X169046385Y-92304818D01*
X169245975Y-91822944D01*
X169245975Y-94337452D01*
X169118860Y-94284800D01*
X168866241Y-94284800D01*
X168066141Y-94284800D01*
X167832752Y-94381473D01*
X167654123Y-94560101D01*
X167639999Y-94594197D01*
X167625877Y-94560102D01*
X167447249Y-94381473D01*
X167213860Y-94284800D01*
X166961241Y-94284800D01*
X166161141Y-94284800D01*
X165938200Y-94377145D01*
X165938200Y-93091000D01*
X166242309Y-93091000D01*
X166475698Y-92994327D01*
X166654327Y-92815699D01*
X166670693Y-92776187D01*
X166671621Y-92777188D01*
X167257054Y-93045983D01*
X167513000Y-92927367D01*
X167513000Y-91567000D01*
X167493000Y-91567000D01*
X167493000Y-91313000D01*
X167513000Y-91313000D01*
X167513000Y-89952633D01*
X167257054Y-89834017D01*
X166671621Y-90102812D01*
X166670692Y-90103812D01*
X166654327Y-90064302D01*
X166475699Y-89885673D01*
X166242310Y-89789000D01*
X165989691Y-89789000D01*
X163957691Y-89789000D01*
X163724302Y-89885673D01*
X163545673Y-90064301D01*
X163449000Y-90297690D01*
X163449000Y-90550309D01*
X163449000Y-92582309D01*
X163545673Y-92815698D01*
X163724301Y-92994327D01*
X163957690Y-93091000D01*
X164210309Y-93091000D01*
X164261800Y-93091000D01*
X164261800Y-94996000D01*
X164325604Y-95316766D01*
X164507303Y-95588697D01*
X164931483Y-96012877D01*
X165203414Y-96194576D01*
X165203415Y-96194576D01*
X165524180Y-96258380D01*
X165740060Y-96258380D01*
X165749123Y-96280258D01*
X165831116Y-96362252D01*
X165165369Y-97028000D01*
X164592000Y-97028000D01*
X164592000Y-96965191D01*
X164495327Y-96731802D01*
X164316699Y-96553173D01*
X164083310Y-96456500D01*
X163830691Y-96456500D01*
X162941691Y-96456500D01*
X162708302Y-96553173D01*
X162559999Y-96701474D01*
X162411699Y-96553173D01*
X162178310Y-96456500D01*
X161925691Y-96456500D01*
X161036691Y-96456500D01*
X160803302Y-96553173D01*
X160624673Y-96731801D01*
X160528000Y-96965190D01*
X160528000Y-97028000D01*
X159615240Y-97028000D01*
X159615240Y-91017211D01*
X159290910Y-90232273D01*
X158690886Y-89631200D01*
X157906515Y-89305501D01*
X157057211Y-89304760D01*
X156272273Y-89629090D01*
X155671200Y-90229114D01*
X155345501Y-91013485D01*
X155344760Y-91862789D01*
X155669090Y-92647727D01*
X156269114Y-93248800D01*
X157053485Y-93574499D01*
X157902789Y-93575240D01*
X158687727Y-93250910D01*
X159288800Y-92650886D01*
X159614499Y-91866515D01*
X159615240Y-91017211D01*
X159615240Y-97028000D01*
X159131000Y-97028000D01*
X159131000Y-96800091D01*
X159034327Y-96566702D01*
X158855699Y-96388073D01*
X158622310Y-96291400D01*
X158369691Y-96291400D01*
X156337691Y-96291400D01*
X156104302Y-96388073D01*
X155925673Y-96566701D01*
X155829000Y-96800090D01*
X155829000Y-97052709D01*
X155829000Y-98779909D01*
X155925673Y-99013298D01*
X156104301Y-99191927D01*
X156257779Y-99255500D01*
X156235585Y-99270330D01*
X155910729Y-99756511D01*
X155796655Y-100330000D01*
X155910729Y-100903489D01*
X156235585Y-101389670D01*
X156550365Y-101600000D01*
X156235585Y-101810330D01*
X155910729Y-102296511D01*
X155796655Y-102870000D01*
X155910729Y-103443489D01*
X156235585Y-103929670D01*
X156550365Y-104140000D01*
X156235585Y-104350330D01*
X155910729Y-104836511D01*
X155796655Y-105410000D01*
X155910729Y-105983489D01*
X156235585Y-106469670D01*
X156550365Y-106680000D01*
X156235585Y-106890330D01*
X155910729Y-107376511D01*
X155796655Y-107950000D01*
X155910729Y-108523489D01*
X156235585Y-109009670D01*
X156550365Y-109220000D01*
X156235585Y-109430330D01*
X155910729Y-109916511D01*
X155796655Y-110490000D01*
X155910729Y-111063489D01*
X156235585Y-111549670D01*
X156550365Y-111760000D01*
X156235585Y-111970330D01*
X155910729Y-112456511D01*
X155796655Y-113030000D01*
X155910729Y-113603489D01*
X156235585Y-114089670D01*
X156550365Y-114300000D01*
X156235585Y-114510330D01*
X155910729Y-114996511D01*
X155796655Y-115570000D01*
X155910729Y-116143489D01*
X156235585Y-116629670D01*
X156545069Y-116836460D01*
X156129268Y-117207964D01*
X155875291Y-117735209D01*
X155872642Y-117750974D01*
X155993783Y-117983000D01*
X157353000Y-117983000D01*
X157353000Y-117963000D01*
X157607000Y-117963000D01*
X157607000Y-117983000D01*
X158966217Y-117983000D01*
X159087358Y-117750974D01*
X159084709Y-117735209D01*
X158830732Y-117207964D01*
X158414930Y-116836460D01*
X158724415Y-116629670D01*
X158735174Y-116613568D01*
X161713303Y-119591697D01*
X161985234Y-119773396D01*
X161985235Y-119773396D01*
X162306000Y-119837200D01*
X162560259Y-119837200D01*
X162604324Y-119881341D01*
X162986944Y-120040219D01*
X163401238Y-120040580D01*
X163784135Y-119882371D01*
X164077341Y-119589676D01*
X164236219Y-119207056D01*
X164236580Y-118792762D01*
X164078371Y-118409865D01*
X164032585Y-118364000D01*
X169164000Y-118364000D01*
X169164000Y-118363999D01*
X169455604Y-118305996D01*
X169455605Y-118305996D01*
X169702815Y-118140815D01*
X170083815Y-117759816D01*
X170083815Y-117759815D01*
X170248996Y-117512605D01*
X170306999Y-117221000D01*
X170307000Y-117221000D01*
X170307000Y-117067411D01*
X170434000Y-117014806D01*
X170434000Y-119380000D01*
X170492004Y-119671605D01*
X170657185Y-119918815D01*
X171292185Y-120553816D01*
X171440376Y-120652834D01*
X171539395Y-120718996D01*
X171539396Y-120718996D01*
X171831000Y-120777000D01*
X173736000Y-120777000D01*
X173736000Y-120776999D01*
X174027604Y-120718996D01*
X174027605Y-120718996D01*
X174274815Y-120553815D01*
X174377501Y-120451128D01*
X174403685Y-120490315D01*
X174794120Y-120880750D01*
X174416865Y-121036629D01*
X174371615Y-121081800D01*
X170561000Y-121081800D01*
X170240234Y-121145604D01*
X169968303Y-121327303D01*
X169587303Y-121708303D01*
X169405604Y-121980234D01*
X169341800Y-122301000D01*
X169341800Y-122809000D01*
X169190091Y-122809000D01*
X168956702Y-122905673D01*
X168778073Y-123084301D01*
X168681400Y-123317690D01*
X168681400Y-123570309D01*
X168681400Y-125602309D01*
X168778073Y-125835698D01*
X168956701Y-126014327D01*
X169190090Y-126111000D01*
X169442709Y-126111000D01*
X171169909Y-126111000D01*
X171403298Y-126014327D01*
X171581927Y-125835699D01*
X171663758Y-125638139D01*
X171817964Y-125810732D01*
X172345209Y-126064709D01*
X172360974Y-126067358D01*
X172593000Y-125946217D01*
X172593000Y-124587000D01*
X172573000Y-124587000D01*
X172573000Y-124333000D01*
X172593000Y-124333000D01*
X172593000Y-122973783D01*
X172360974Y-122852642D01*
X172345209Y-122855291D01*
X171817964Y-123109268D01*
X171663758Y-123281860D01*
X171581927Y-123084302D01*
X171403299Y-122905673D01*
X171169910Y-122809000D01*
X171018200Y-122809000D01*
X171018200Y-122758200D01*
X174371259Y-122758200D01*
X174415324Y-122802341D01*
X174664156Y-122905665D01*
X174200330Y-123215585D01*
X173993539Y-123525069D01*
X173622036Y-123109268D01*
X173094791Y-122855291D01*
X173079026Y-122852642D01*
X172847000Y-122973783D01*
X172847000Y-124333000D01*
X172867000Y-124333000D01*
X172867000Y-124587000D01*
X172847000Y-124587000D01*
X172847000Y-125946217D01*
X173079026Y-126067358D01*
X173094791Y-126064709D01*
X173622036Y-125810732D01*
X173993539Y-125394930D01*
X174200330Y-125704415D01*
X174686511Y-126029271D01*
X175260000Y-126143345D01*
X175833489Y-126029271D01*
X176319670Y-125704415D01*
X176644526Y-125218234D01*
X176758600Y-124644745D01*
X176758600Y-124275255D01*
X176644526Y-123701766D01*
X176319670Y-123215585D01*
X175833489Y-122890729D01*
X175529873Y-122830336D01*
X175595135Y-122803371D01*
X175888341Y-122510676D01*
X176045519Y-122132149D01*
X176626185Y-122712816D01*
X176774376Y-122811834D01*
X176873395Y-122877996D01*
X176873396Y-122877996D01*
X177165000Y-122936000D01*
X180340000Y-122936000D01*
X180340000Y-122935999D01*
X180631604Y-122877996D01*
X180631605Y-122877996D01*
X180878815Y-122712815D01*
X181513815Y-122077815D01*
X181513816Y-122077815D01*
X181576834Y-121983500D01*
X181641750Y-121983500D01*
X181800500Y-121824750D01*
X181800500Y-120777000D01*
X181780500Y-120777000D01*
X181780500Y-120523000D01*
X181800500Y-120523000D01*
X181800500Y-119475250D01*
X181737000Y-119411750D01*
X181737000Y-117790630D01*
X181925630Y-117602000D01*
X182996391Y-117602000D01*
X182943500Y-117729691D01*
X182943500Y-117824250D01*
X183102250Y-117983000D01*
X184023000Y-117983000D01*
X184023000Y-117963000D01*
X184277000Y-117963000D01*
X184277000Y-117983000D01*
X185197750Y-117983000D01*
X185356500Y-117824250D01*
X185356500Y-117729691D01*
X185349177Y-117712013D01*
X185473876Y-117795334D01*
X185572895Y-117861496D01*
X185572896Y-117861496D01*
X185864500Y-117919500D01*
X186070693Y-117919500D01*
X186088173Y-117961698D01*
X186266801Y-118140327D01*
X186500190Y-118237000D01*
X186752809Y-118237000D01*
X188149809Y-118237000D01*
X188383198Y-118140327D01*
X188561827Y-117961699D01*
X188658500Y-117728310D01*
X188658500Y-117475691D01*
X188658500Y-116586691D01*
X188561827Y-116353302D01*
X188413525Y-116204999D01*
X188561827Y-116056699D01*
X188579306Y-116014500D01*
X189293500Y-116014500D01*
X189293500Y-116014499D01*
X189585104Y-115956496D01*
X189585105Y-115956496D01*
X189832315Y-115791315D01*
X190053630Y-115570000D01*
X190326688Y-115570000D01*
X190525585Y-115867670D01*
X190835069Y-116074460D01*
X190419268Y-116445964D01*
X190165291Y-116973209D01*
X190162642Y-116988974D01*
X190283783Y-117221000D01*
X191643000Y-117221000D01*
X191643000Y-117201000D01*
X191897000Y-117201000D01*
X191897000Y-117221000D01*
X193256217Y-117221000D01*
X193377358Y-116988974D01*
X193374709Y-116973209D01*
X193120732Y-116445964D01*
X192704930Y-116074460D01*
X193014415Y-115867670D01*
X193339271Y-115381489D01*
X193453345Y-114808000D01*
X193453345Y-122325489D01*
X193377358Y-122325423D01*
X193377358Y-117707026D01*
X193256217Y-117475000D01*
X191897000Y-117475000D01*
X191897000Y-118688924D01*
X192131913Y-118833184D01*
X192684320Y-118639954D01*
X193120732Y-118250036D01*
X193374709Y-117722791D01*
X193377358Y-117707026D01*
X193377358Y-122325423D01*
X192617211Y-122324760D01*
X191832273Y-122649090D01*
X191643000Y-122838032D01*
X191643000Y-118688924D01*
X191643000Y-117475000D01*
X190283783Y-117475000D01*
X190162642Y-117707026D01*
X190165291Y-117722791D01*
X190419268Y-118250036D01*
X190855680Y-118639954D01*
X191408087Y-118833184D01*
X191643000Y-118688924D01*
X191643000Y-122838032D01*
X191231200Y-123249114D01*
X190905501Y-124033485D01*
X190904760Y-124882789D01*
X191229090Y-125667727D01*
X191829114Y-126268800D01*
X192613485Y-126594499D01*
X193462789Y-126595240D01*
X194247727Y-126270910D01*
X194848800Y-125670886D01*
X195174499Y-124886515D01*
X195175240Y-124037211D01*
X195175240Y-127560000D01*
X185356500Y-127560000D01*
X185356500Y-118490309D01*
X185356500Y-118395750D01*
X185197750Y-118237000D01*
X184277000Y-118237000D01*
X184277000Y-118840250D01*
X184435750Y-118999000D01*
X184595191Y-118999000D01*
X184847810Y-118999000D01*
X185081199Y-118902327D01*
X185259827Y-118723698D01*
X185356500Y-118490309D01*
X185356500Y-127560000D01*
X184023000Y-127560000D01*
X184023000Y-118840250D01*
X184023000Y-118237000D01*
X183102250Y-118237000D01*
X182943500Y-118395750D01*
X182943500Y-118490309D01*
X183040173Y-118723698D01*
X183218801Y-118902327D01*
X183452190Y-118999000D01*
X183704809Y-118999000D01*
X183864250Y-118999000D01*
X184023000Y-118840250D01*
X184023000Y-127560000D01*
X183007000Y-127560000D01*
X183007000Y-121474810D01*
X183007000Y-121222191D01*
X183007000Y-120935750D01*
X183007000Y-120364250D01*
X183007000Y-120077809D01*
X183007000Y-119825190D01*
X182910327Y-119591801D01*
X182731698Y-119413173D01*
X182498309Y-119316500D01*
X182213250Y-119316500D01*
X182054500Y-119475250D01*
X182054500Y-120523000D01*
X182848250Y-120523000D01*
X183007000Y-120364250D01*
X183007000Y-120935750D01*
X182848250Y-120777000D01*
X182054500Y-120777000D01*
X182054500Y-121824750D01*
X182213250Y-121983500D01*
X182498309Y-121983500D01*
X182731698Y-121886827D01*
X182910327Y-121708199D01*
X183007000Y-121474810D01*
X183007000Y-127560000D01*
X159615240Y-127560000D01*
X159615240Y-124037211D01*
X159290910Y-123252273D01*
X159087358Y-123048365D01*
X159087358Y-118469026D01*
X158966217Y-118237000D01*
X157607000Y-118237000D01*
X157607000Y-119450924D01*
X157841913Y-119595184D01*
X158394320Y-119401954D01*
X158830732Y-119012036D01*
X159084709Y-118484791D01*
X159087358Y-118469026D01*
X159087358Y-123048365D01*
X158690886Y-122651200D01*
X157906515Y-122325501D01*
X157353000Y-122325018D01*
X157353000Y-119450924D01*
X157353000Y-118237000D01*
X155993783Y-118237000D01*
X155872642Y-118469026D01*
X155875291Y-118484791D01*
X156129268Y-119012036D01*
X156565680Y-119401954D01*
X157118087Y-119595184D01*
X157353000Y-119450924D01*
X157353000Y-122325018D01*
X157057211Y-122324760D01*
X156272273Y-122649090D01*
X155671200Y-123249114D01*
X155345501Y-124033485D01*
X155344760Y-124882789D01*
X155669090Y-125667727D01*
X156269114Y-126268800D01*
X157053485Y-126594499D01*
X157902789Y-126595240D01*
X158687727Y-126270910D01*
X159288800Y-125670886D01*
X159614499Y-124886515D01*
X159615240Y-124037211D01*
X159615240Y-127560000D01*
X154380000Y-127560000D01*
X154380000Y-88340000D01*
X196140000Y-88340000D01*
X196140000Y-127560000D01*
X196140000Y-127560000D01*
G37*
X196140000Y-127560000D02*
X195175240Y-127560000D01*
X195175240Y-124037211D01*
X195175240Y-91017211D01*
X194850910Y-90232273D01*
X194250886Y-89631200D01*
X193466515Y-89305501D01*
X192617211Y-89304760D01*
X191832273Y-89629090D01*
X191231200Y-90229114D01*
X190905501Y-91013485D01*
X190904760Y-91862789D01*
X191229090Y-92647727D01*
X191829114Y-93248800D01*
X192613485Y-93574499D01*
X193462789Y-93575240D01*
X194247727Y-93250910D01*
X194848800Y-92650886D01*
X195174499Y-91866515D01*
X195175240Y-91017211D01*
X195175240Y-124037211D01*
X194850910Y-123252273D01*
X194250886Y-122651200D01*
X193466515Y-122325501D01*
X193453345Y-122325489D01*
X193453345Y-114808000D01*
X193339271Y-114234511D01*
X193014415Y-113748330D01*
X192992219Y-113733499D01*
X193145698Y-113669927D01*
X193324327Y-113491299D01*
X193421000Y-113257910D01*
X193421000Y-113005291D01*
X193421000Y-111278091D01*
X193377358Y-111172730D01*
X193377358Y-107674026D01*
X193256217Y-107442000D01*
X191897000Y-107442000D01*
X191897000Y-108655924D01*
X192131913Y-108800184D01*
X192684320Y-108606954D01*
X193120732Y-108217036D01*
X193374709Y-107689791D01*
X193377358Y-107674026D01*
X193377358Y-111172730D01*
X193324327Y-111044702D01*
X193145699Y-110866073D01*
X192912310Y-110769400D01*
X192659691Y-110769400D01*
X191643000Y-110769400D01*
X191643000Y-108655924D01*
X191643000Y-107442000D01*
X190283783Y-107442000D01*
X190162642Y-107674026D01*
X190165291Y-107689791D01*
X190419268Y-108217036D01*
X190855680Y-108606954D01*
X191408087Y-108800184D01*
X191643000Y-108655924D01*
X191643000Y-110769400D01*
X190627691Y-110769400D01*
X190394302Y-110866073D01*
X190215673Y-111044701D01*
X190119000Y-111278090D01*
X190119000Y-111506000D01*
X189545630Y-111506000D01*
X187863815Y-109824185D01*
X187616605Y-109659004D01*
X187325000Y-109601000D01*
X185356500Y-109601000D01*
X185356500Y-106425309D01*
X185356500Y-106330750D01*
X185197750Y-106172000D01*
X184277000Y-106172000D01*
X184277000Y-106775250D01*
X184435750Y-106934000D01*
X184595191Y-106934000D01*
X184847810Y-106934000D01*
X185081199Y-106837327D01*
X185259827Y-106658698D01*
X185356500Y-106425309D01*
X185356500Y-109601000D01*
X184023000Y-109601000D01*
X184023000Y-106775250D01*
X184023000Y-106172000D01*
X183102250Y-106172000D01*
X182943500Y-106330750D01*
X182943500Y-106425309D01*
X183040173Y-106658698D01*
X183218801Y-106837327D01*
X183452190Y-106934000D01*
X183704809Y-106934000D01*
X183864250Y-106934000D01*
X184023000Y-106775250D01*
X184023000Y-109601000D01*
X182927806Y-109601000D01*
X183007000Y-109409810D01*
X183007000Y-109157191D01*
X183007000Y-108870750D01*
X183007000Y-108299250D01*
X183007000Y-108012809D01*
X183007000Y-107760190D01*
X182910327Y-107526801D01*
X182731698Y-107348173D01*
X182498309Y-107251500D01*
X182213250Y-107251500D01*
X182054500Y-107410250D01*
X182054500Y-108458000D01*
X182848250Y-108458000D01*
X183007000Y-108299250D01*
X183007000Y-108870750D01*
X182848250Y-108712000D01*
X182054500Y-108712000D01*
X182054500Y-108732000D01*
X181800500Y-108732000D01*
X181800500Y-108712000D01*
X181780500Y-108712000D01*
X181780500Y-108458000D01*
X181800500Y-108458000D01*
X181800500Y-107410250D01*
X181737000Y-107346750D01*
X181737000Y-106233630D01*
X182433630Y-105537000D01*
X182996391Y-105537000D01*
X182943500Y-105664691D01*
X182943500Y-105759250D01*
X183102250Y-105918000D01*
X184023000Y-105918000D01*
X184023000Y-105898000D01*
X184277000Y-105898000D01*
X184277000Y-105918000D01*
X185197750Y-105918000D01*
X185356500Y-105759250D01*
X185356500Y-105741789D01*
X185543735Y-105866896D01*
X185864500Y-105930700D01*
X186122174Y-105930700D01*
X186266801Y-106075327D01*
X186500190Y-106172000D01*
X186752809Y-106172000D01*
X188149809Y-106172000D01*
X188383198Y-106075327D01*
X188561827Y-105896699D01*
X188658500Y-105663310D01*
X188658500Y-105410691D01*
X188658500Y-104646130D01*
X189326185Y-105313815D01*
X189573395Y-105478996D01*
X189573396Y-105478996D01*
X189865000Y-105537000D01*
X190326688Y-105537000D01*
X190525585Y-105834670D01*
X190835069Y-106041460D01*
X190419268Y-106412964D01*
X190165291Y-106940209D01*
X190162642Y-106955974D01*
X190283783Y-107188000D01*
X191643000Y-107188000D01*
X191643000Y-107168000D01*
X191897000Y-107168000D01*
X191897000Y-107188000D01*
X193256217Y-107188000D01*
X193377358Y-106955974D01*
X193374709Y-106940209D01*
X193120732Y-106412964D01*
X192704930Y-106041460D01*
X193014415Y-105834670D01*
X193339271Y-105348489D01*
X193453345Y-104775000D01*
X193339271Y-104201511D01*
X193014415Y-103715330D01*
X192992219Y-103700499D01*
X193145698Y-103636927D01*
X193324327Y-103458299D01*
X193421000Y-103224910D01*
X193421000Y-102972291D01*
X193421000Y-101245091D01*
X193324327Y-101011702D01*
X193145699Y-100833073D01*
X192912310Y-100736400D01*
X192659691Y-100736400D01*
X192532000Y-100736400D01*
X192532000Y-100330000D01*
X192473996Y-100038396D01*
X192473996Y-100038395D01*
X192407834Y-99939376D01*
X192308816Y-99791185D01*
X191546815Y-99029185D01*
X191299605Y-98864004D01*
X191008000Y-98806000D01*
X187025975Y-98806000D01*
X187025975Y-91822944D01*
X187025975Y-91057056D01*
X186826385Y-90575182D01*
X186388379Y-90102812D01*
X185802946Y-89834017D01*
X185547000Y-89952633D01*
X185547000Y-91313000D01*
X186906836Y-91313000D01*
X187025975Y-91057056D01*
X187025975Y-91822944D01*
X186906836Y-91567000D01*
X185547000Y-91567000D01*
X185547000Y-92927367D01*
X185802946Y-93045983D01*
X186388379Y-92777188D01*
X186826385Y-92304818D01*
X187025975Y-91822944D01*
X187025975Y-98806000D01*
X185947050Y-98806000D01*
X185947050Y-98246510D01*
X185947050Y-97993891D01*
X185947050Y-97905570D01*
X185788300Y-97746820D01*
X185039000Y-97746820D01*
X185039000Y-98596450D01*
X185197750Y-98755200D01*
X185438359Y-98755200D01*
X185671748Y-98658527D01*
X185850377Y-98479899D01*
X185947050Y-98246510D01*
X185947050Y-98806000D01*
X184719630Y-98806000D01*
X184647540Y-98733909D01*
X184785000Y-98596450D01*
X184785000Y-97746820D01*
X184035700Y-97746820D01*
X183876950Y-97905570D01*
X183876950Y-97963319D01*
X183672815Y-97759185D01*
X183425605Y-97594004D01*
X183134000Y-97536000D01*
X181229000Y-97536000D01*
X180937395Y-97594004D01*
X180690184Y-97759185D01*
X180436185Y-98013185D01*
X180271004Y-98260395D01*
X180236651Y-98433098D01*
X180236650Y-98433099D01*
X180149500Y-98520250D01*
X180149500Y-99568000D01*
X180169500Y-99568000D01*
X180169500Y-99822000D01*
X180149500Y-99822000D01*
X180149500Y-99842000D01*
X179895500Y-99842000D01*
X179895500Y-99822000D01*
X179895500Y-99568000D01*
X179895500Y-98520250D01*
X179736750Y-98361500D01*
X179451691Y-98361500D01*
X179218302Y-98458173D01*
X179039673Y-98636801D01*
X178943000Y-98870190D01*
X178943000Y-99122809D01*
X178943000Y-99409250D01*
X179101750Y-99568000D01*
X179895500Y-99568000D01*
X179895500Y-99822000D01*
X179101750Y-99822000D01*
X178943000Y-99980750D01*
X178943000Y-100267191D01*
X178943000Y-100519810D01*
X179039673Y-100753199D01*
X179218302Y-100931827D01*
X179451691Y-101028500D01*
X179736750Y-101028500D01*
X179895498Y-100869752D01*
X179895498Y-101028500D01*
X179895500Y-101028500D01*
X179960870Y-101028500D01*
X179895500Y-101093870D01*
X179516370Y-101473000D01*
X178761525Y-101473000D01*
X178731199Y-101442673D01*
X178497810Y-101346000D01*
X178245191Y-101346000D01*
X177292000Y-101346000D01*
X177292000Y-100584000D01*
X177233996Y-100292395D01*
X177068815Y-100045185D01*
X177068815Y-100045184D01*
X176814815Y-99791185D01*
X176623366Y-99663263D01*
X179004630Y-97282000D01*
X183876950Y-97282000D01*
X183876950Y-97334070D01*
X184035700Y-97492820D01*
X184785000Y-97492820D01*
X184785000Y-97472820D01*
X185039000Y-97472820D01*
X185039000Y-97492820D01*
X185788300Y-97492820D01*
X185947050Y-97334070D01*
X185947050Y-97245749D01*
X185947050Y-97227686D01*
X185965604Y-97223996D01*
X185965605Y-97223996D01*
X186212815Y-97058815D01*
X186403315Y-96868315D01*
X186403316Y-96868315D01*
X186502334Y-96720123D01*
X186568496Y-96621105D01*
X186568496Y-96621104D01*
X186598654Y-96469488D01*
X186624248Y-96458887D01*
X186802877Y-96280259D01*
X186899550Y-96046870D01*
X186899550Y-95794251D01*
X186899550Y-94793491D01*
X186802877Y-94560102D01*
X186624249Y-94381473D01*
X186390860Y-94284800D01*
X186138241Y-94284800D01*
X185338141Y-94284800D01*
X185104752Y-94381473D01*
X184926123Y-94560101D01*
X184911999Y-94594197D01*
X184897877Y-94560102D01*
X184797700Y-94459924D01*
X184797700Y-94424500D01*
X184733896Y-94103735D01*
X184552197Y-93831803D01*
X183811394Y-93091000D01*
X184022309Y-93091000D01*
X184255698Y-92994327D01*
X184434327Y-92815699D01*
X184450693Y-92776187D01*
X184451621Y-92777188D01*
X185037054Y-93045983D01*
X185293000Y-92927367D01*
X185293000Y-91567000D01*
X185273000Y-91567000D01*
X185273000Y-91313000D01*
X185293000Y-91313000D01*
X185293000Y-89952633D01*
X185037054Y-89834017D01*
X184451621Y-90102812D01*
X184450692Y-90103812D01*
X184434327Y-90064302D01*
X184255699Y-89885673D01*
X184022310Y-89789000D01*
X183769691Y-89789000D01*
X181737691Y-89789000D01*
X181504302Y-89885673D01*
X181325673Y-90064301D01*
X181229000Y-90297690D01*
X181229000Y-90550309D01*
X181229000Y-92582309D01*
X181325673Y-92815698D01*
X181504301Y-92994327D01*
X181737690Y-93091000D01*
X181990309Y-93091000D01*
X182041800Y-93091000D01*
X182041800Y-93345000D01*
X182105604Y-93665766D01*
X182287303Y-93937697D01*
X182988489Y-94638883D01*
X182924450Y-94793490D01*
X182924450Y-95046109D01*
X182924450Y-95758000D01*
X178689000Y-95758000D01*
X178397395Y-95816004D01*
X178298376Y-95882165D01*
X178150185Y-95981184D01*
X178135975Y-95995394D01*
X178135975Y-91822944D01*
X178135975Y-91057056D01*
X177936385Y-90575182D01*
X177498379Y-90102812D01*
X176912946Y-89834017D01*
X176657000Y-89952633D01*
X176657000Y-91313000D01*
X178016836Y-91313000D01*
X178135975Y-91057056D01*
X178135975Y-91822944D01*
X178016836Y-91567000D01*
X176657000Y-91567000D01*
X176657000Y-92927367D01*
X176912946Y-93045983D01*
X177498379Y-92777188D01*
X177936385Y-92304818D01*
X178135975Y-91822944D01*
X178135975Y-95995394D01*
X175579369Y-98552000D01*
X174856275Y-98552000D01*
X174928377Y-98479899D01*
X175025050Y-98246510D01*
X175025050Y-97993891D01*
X175025050Y-97905570D01*
X174866300Y-97746820D01*
X174117000Y-97746820D01*
X174117000Y-97766820D01*
X173863000Y-97766820D01*
X173863000Y-97746820D01*
X173113700Y-97746820D01*
X172954950Y-97905570D01*
X172954950Y-97993891D01*
X172954950Y-98246510D01*
X173051623Y-98479899D01*
X173123724Y-98552000D01*
X171323000Y-98552000D01*
X171031395Y-98610004D01*
X170784185Y-98775185D01*
X164911370Y-104648000D01*
X164592000Y-104648000D01*
X164592000Y-104585191D01*
X164495327Y-104351802D01*
X164316699Y-104173173D01*
X164083310Y-104076500D01*
X163830691Y-104076500D01*
X162941691Y-104076500D01*
X162708302Y-104173173D01*
X162559999Y-104321474D01*
X162411699Y-104173173D01*
X162178310Y-104076500D01*
X161925691Y-104076500D01*
X161036691Y-104076500D01*
X160803302Y-104173173D01*
X160655000Y-104321474D01*
X160655000Y-103378000D01*
X160596996Y-103086395D01*
X160431815Y-102839185D01*
X160431815Y-102839184D01*
X159923815Y-102331185D01*
X159676605Y-102166004D01*
X159385000Y-102108000D01*
X158923311Y-102108000D01*
X158724415Y-101810330D01*
X158409634Y-101600000D01*
X158724415Y-101389670D01*
X158923311Y-101092000D01*
X159069369Y-101092000D01*
X160116184Y-102138815D01*
X160116185Y-102138815D01*
X160363395Y-102303996D01*
X160528000Y-102336738D01*
X160528000Y-102424809D01*
X160624673Y-102658198D01*
X160803301Y-102836827D01*
X161036690Y-102933500D01*
X161289309Y-102933500D01*
X162178309Y-102933500D01*
X162411698Y-102836827D01*
X162560000Y-102688525D01*
X162708301Y-102836827D01*
X162941690Y-102933500D01*
X163194309Y-102933500D01*
X164083309Y-102933500D01*
X164316698Y-102836827D01*
X164495327Y-102658199D01*
X164592000Y-102424810D01*
X164592000Y-102362000D01*
X166878000Y-102362000D01*
X166878000Y-102361999D01*
X167169604Y-102303996D01*
X167169605Y-102303996D01*
X167416815Y-102138815D01*
X172273630Y-97282000D01*
X172954950Y-97282000D01*
X172954950Y-97334070D01*
X173113700Y-97492820D01*
X173863000Y-97492820D01*
X173863000Y-97472820D01*
X174117000Y-97472820D01*
X174117000Y-97492820D01*
X174866300Y-97492820D01*
X175025050Y-97334070D01*
X175025050Y-97245749D01*
X175025050Y-97151535D01*
X175025050Y-97151534D01*
X175163815Y-97058815D01*
X175481315Y-96741315D01*
X175481316Y-96741315D01*
X175580334Y-96593123D01*
X175646496Y-96494105D01*
X175646496Y-96494104D01*
X175649124Y-96480891D01*
X175702248Y-96458887D01*
X175880877Y-96280259D01*
X175977550Y-96046870D01*
X175977550Y-95794251D01*
X175977550Y-94793491D01*
X175880877Y-94560102D01*
X175702249Y-94381473D01*
X175468860Y-94284800D01*
X175216241Y-94284800D01*
X174416141Y-94284800D01*
X174182752Y-94381473D01*
X174004123Y-94560101D01*
X173989999Y-94594197D01*
X173975877Y-94560102D01*
X173904584Y-94488809D01*
X174582697Y-93810697D01*
X174764395Y-93538766D01*
X174764396Y-93538765D01*
X174828200Y-93218000D01*
X174828200Y-93091000D01*
X175132309Y-93091000D01*
X175365698Y-92994327D01*
X175544327Y-92815699D01*
X175560693Y-92776187D01*
X175561621Y-92777188D01*
X176147054Y-93045983D01*
X176403000Y-92927367D01*
X176403000Y-91567000D01*
X176383000Y-91567000D01*
X176383000Y-91313000D01*
X176403000Y-91313000D01*
X176403000Y-89952633D01*
X176147054Y-89834017D01*
X175561621Y-90102812D01*
X175560692Y-90103812D01*
X175544327Y-90064302D01*
X175365699Y-89885673D01*
X175132310Y-89789000D01*
X174879691Y-89789000D01*
X172847691Y-89789000D01*
X172614302Y-89885673D01*
X172435673Y-90064301D01*
X172339000Y-90297690D01*
X172339000Y-90550309D01*
X172339000Y-92582309D01*
X172435673Y-92815698D01*
X172614301Y-92994327D01*
X172847690Y-93091000D01*
X172931606Y-93091000D01*
X172444803Y-93577803D01*
X172263104Y-93849734D01*
X172199300Y-94170500D01*
X172199300Y-94459924D01*
X172099123Y-94560101D01*
X172002450Y-94793490D01*
X172002450Y-95046109D01*
X172002450Y-95758000D01*
X171958000Y-95758000D01*
X171666395Y-95816004D01*
X171419185Y-95981185D01*
X168675050Y-98725320D01*
X168675050Y-98246510D01*
X168675050Y-97993891D01*
X168675050Y-97905570D01*
X168516300Y-97746820D01*
X167767000Y-97746820D01*
X167767000Y-98596450D01*
X167925750Y-98755200D01*
X168166359Y-98755200D01*
X168399748Y-98658527D01*
X168578377Y-98479899D01*
X168675050Y-98246510D01*
X168675050Y-98725320D01*
X167513000Y-99887370D01*
X166562370Y-100838000D01*
X164592000Y-100838000D01*
X164592000Y-100775191D01*
X164495327Y-100541802D01*
X164316699Y-100363173D01*
X164083310Y-100266500D01*
X163830691Y-100266500D01*
X162941691Y-100266500D01*
X162708302Y-100363173D01*
X162559999Y-100511474D01*
X162411699Y-100363173D01*
X162178310Y-100266500D01*
X161925691Y-100266500D01*
X161036691Y-100266500D01*
X160803302Y-100363173D01*
X160649552Y-100516921D01*
X159923815Y-99791185D01*
X159676605Y-99626004D01*
X159385000Y-99568000D01*
X158923311Y-99568000D01*
X158724415Y-99270330D01*
X158702219Y-99255499D01*
X158855698Y-99191927D01*
X159034327Y-99013299D01*
X159131000Y-98779910D01*
X159131000Y-98552000D01*
X160528000Y-98552000D01*
X160528000Y-98614809D01*
X160624673Y-98848198D01*
X160803301Y-99026827D01*
X161036690Y-99123500D01*
X161289309Y-99123500D01*
X162178309Y-99123500D01*
X162411698Y-99026827D01*
X162560000Y-98878525D01*
X162708301Y-99026827D01*
X162941690Y-99123500D01*
X163194309Y-99123500D01*
X164083309Y-99123500D01*
X164316698Y-99026827D01*
X164495327Y-98848199D01*
X164592000Y-98614810D01*
X164592000Y-98552000D01*
X165481000Y-98552000D01*
X165481000Y-98551999D01*
X165772604Y-98493996D01*
X165772605Y-98493996D01*
X166019815Y-98328815D01*
X166604950Y-97743680D01*
X166604950Y-97746822D01*
X166763698Y-97746822D01*
X166604950Y-97905570D01*
X166604950Y-97993891D01*
X166604950Y-98246510D01*
X166701623Y-98479899D01*
X166880252Y-98658527D01*
X167113641Y-98755200D01*
X167354250Y-98755200D01*
X167513000Y-98596450D01*
X167513000Y-97746820D01*
X167493000Y-97746820D01*
X167493000Y-97492820D01*
X167513000Y-97492820D01*
X167513000Y-97472820D01*
X167767000Y-97472820D01*
X167767000Y-97492820D01*
X168516300Y-97492820D01*
X168675050Y-97334070D01*
X168675050Y-97245749D01*
X168675050Y-97151535D01*
X168675050Y-97151534D01*
X168813815Y-97058815D01*
X169131315Y-96741315D01*
X169131316Y-96741315D01*
X169230334Y-96593123D01*
X169296496Y-96494105D01*
X169296496Y-96494104D01*
X169299124Y-96480891D01*
X169352248Y-96458887D01*
X169530877Y-96280259D01*
X169627550Y-96046870D01*
X169627550Y-95794251D01*
X169627550Y-94793491D01*
X169530877Y-94560102D01*
X169352249Y-94381473D01*
X169245975Y-94337452D01*
X169245975Y-91822944D01*
X169245975Y-91057056D01*
X169046385Y-90575182D01*
X168608379Y-90102812D01*
X168022946Y-89834017D01*
X167767000Y-89952633D01*
X167767000Y-91313000D01*
X169126836Y-91313000D01*
X169245975Y-91057056D01*
X169245975Y-91822944D01*
X169126836Y-91567000D01*
X167767000Y-91567000D01*
X167767000Y-92927367D01*
X168022946Y-93045983D01*
X168608379Y-92777188D01*
X169046385Y-92304818D01*
X169245975Y-91822944D01*
X169245975Y-94337452D01*
X169118860Y-94284800D01*
X168866241Y-94284800D01*
X168066141Y-94284800D01*
X167832752Y-94381473D01*
X167654123Y-94560101D01*
X167639999Y-94594197D01*
X167625877Y-94560102D01*
X167447249Y-94381473D01*
X167213860Y-94284800D01*
X166961241Y-94284800D01*
X166161141Y-94284800D01*
X165938200Y-94377145D01*
X165938200Y-93091000D01*
X166242309Y-93091000D01*
X166475698Y-92994327D01*
X166654327Y-92815699D01*
X166670693Y-92776187D01*
X166671621Y-92777188D01*
X167257054Y-93045983D01*
X167513000Y-92927367D01*
X167513000Y-91567000D01*
X167493000Y-91567000D01*
X167493000Y-91313000D01*
X167513000Y-91313000D01*
X167513000Y-89952633D01*
X167257054Y-89834017D01*
X166671621Y-90102812D01*
X166670692Y-90103812D01*
X166654327Y-90064302D01*
X166475699Y-89885673D01*
X166242310Y-89789000D01*
X165989691Y-89789000D01*
X163957691Y-89789000D01*
X163724302Y-89885673D01*
X163545673Y-90064301D01*
X163449000Y-90297690D01*
X163449000Y-90550309D01*
X163449000Y-92582309D01*
X163545673Y-92815698D01*
X163724301Y-92994327D01*
X163957690Y-93091000D01*
X164210309Y-93091000D01*
X164261800Y-93091000D01*
X164261800Y-94996000D01*
X164325604Y-95316766D01*
X164507303Y-95588697D01*
X164931483Y-96012877D01*
X165203414Y-96194576D01*
X165203415Y-96194576D01*
X165524180Y-96258380D01*
X165740060Y-96258380D01*
X165749123Y-96280258D01*
X165831116Y-96362252D01*
X165165369Y-97028000D01*
X164592000Y-97028000D01*
X164592000Y-96965191D01*
X164495327Y-96731802D01*
X164316699Y-96553173D01*
X164083310Y-96456500D01*
X163830691Y-96456500D01*
X162941691Y-96456500D01*
X162708302Y-96553173D01*
X162559999Y-96701474D01*
X162411699Y-96553173D01*
X162178310Y-96456500D01*
X161925691Y-96456500D01*
X161036691Y-96456500D01*
X160803302Y-96553173D01*
X160624673Y-96731801D01*
X160528000Y-96965190D01*
X160528000Y-97028000D01*
X159615240Y-97028000D01*
X159615240Y-91017211D01*
X159290910Y-90232273D01*
X158690886Y-89631200D01*
X157906515Y-89305501D01*
X157057211Y-89304760D01*
X156272273Y-89629090D01*
X155671200Y-90229114D01*
X155345501Y-91013485D01*
X155344760Y-91862789D01*
X155669090Y-92647727D01*
X156269114Y-93248800D01*
X157053485Y-93574499D01*
X157902789Y-93575240D01*
X158687727Y-93250910D01*
X159288800Y-92650886D01*
X159614499Y-91866515D01*
X159615240Y-91017211D01*
X159615240Y-97028000D01*
X159131000Y-97028000D01*
X159131000Y-96800091D01*
X159034327Y-96566702D01*
X158855699Y-96388073D01*
X158622310Y-96291400D01*
X158369691Y-96291400D01*
X156337691Y-96291400D01*
X156104302Y-96388073D01*
X155925673Y-96566701D01*
X155829000Y-96800090D01*
X155829000Y-97052709D01*
X155829000Y-98779909D01*
X155925673Y-99013298D01*
X156104301Y-99191927D01*
X156257779Y-99255500D01*
X156235585Y-99270330D01*
X155910729Y-99756511D01*
X155796655Y-100330000D01*
X155910729Y-100903489D01*
X156235585Y-101389670D01*
X156550365Y-101600000D01*
X156235585Y-101810330D01*
X155910729Y-102296511D01*
X155796655Y-102870000D01*
X155910729Y-103443489D01*
X156235585Y-103929670D01*
X156550365Y-104140000D01*
X156235585Y-104350330D01*
X155910729Y-104836511D01*
X155796655Y-105410000D01*
X155910729Y-105983489D01*
X156235585Y-106469670D01*
X156550365Y-106680000D01*
X156235585Y-106890330D01*
X155910729Y-107376511D01*
X155796655Y-107950000D01*
X155910729Y-108523489D01*
X156235585Y-109009670D01*
X156550365Y-109220000D01*
X156235585Y-109430330D01*
X155910729Y-109916511D01*
X155796655Y-110490000D01*
X155910729Y-111063489D01*
X156235585Y-111549670D01*
X156550365Y-111760000D01*
X156235585Y-111970330D01*
X155910729Y-112456511D01*
X155796655Y-113030000D01*
X155910729Y-113603489D01*
X156235585Y-114089670D01*
X156550365Y-114300000D01*
X156235585Y-114510330D01*
X155910729Y-114996511D01*
X155796655Y-115570000D01*
X155910729Y-116143489D01*
X156235585Y-116629670D01*
X156545069Y-116836460D01*
X156129268Y-117207964D01*
X155875291Y-117735209D01*
X155872642Y-117750974D01*
X155993783Y-117983000D01*
X157353000Y-117983000D01*
X157353000Y-117963000D01*
X157607000Y-117963000D01*
X157607000Y-117983000D01*
X158966217Y-117983000D01*
X159087358Y-117750974D01*
X159084709Y-117735209D01*
X158830732Y-117207964D01*
X158414930Y-116836460D01*
X158724415Y-116629670D01*
X158735174Y-116613568D01*
X161713303Y-119591697D01*
X161985234Y-119773396D01*
X161985235Y-119773396D01*
X162306000Y-119837200D01*
X162560259Y-119837200D01*
X162604324Y-119881341D01*
X162986944Y-120040219D01*
X163401238Y-120040580D01*
X163784135Y-119882371D01*
X164077341Y-119589676D01*
X164236219Y-119207056D01*
X164236580Y-118792762D01*
X164078371Y-118409865D01*
X164032585Y-118364000D01*
X169164000Y-118364000D01*
X169164000Y-118363999D01*
X169455604Y-118305996D01*
X169455605Y-118305996D01*
X169702815Y-118140815D01*
X170083815Y-117759816D01*
X170083815Y-117759815D01*
X170248996Y-117512605D01*
X170306999Y-117221000D01*
X170307000Y-117221000D01*
X170307000Y-117067411D01*
X170434000Y-117014806D01*
X170434000Y-119380000D01*
X170492004Y-119671605D01*
X170657185Y-119918815D01*
X171292185Y-120553816D01*
X171440376Y-120652834D01*
X171539395Y-120718996D01*
X171539396Y-120718996D01*
X171831000Y-120777000D01*
X173736000Y-120777000D01*
X173736000Y-120776999D01*
X174027604Y-120718996D01*
X174027605Y-120718996D01*
X174274815Y-120553815D01*
X174377501Y-120451128D01*
X174403685Y-120490315D01*
X174794120Y-120880750D01*
X174416865Y-121036629D01*
X174371615Y-121081800D01*
X170561000Y-121081800D01*
X170240234Y-121145604D01*
X169968303Y-121327303D01*
X169587303Y-121708303D01*
X169405604Y-121980234D01*
X169341800Y-122301000D01*
X169341800Y-122809000D01*
X169190091Y-122809000D01*
X168956702Y-122905673D01*
X168778073Y-123084301D01*
X168681400Y-123317690D01*
X168681400Y-123570309D01*
X168681400Y-125602309D01*
X168778073Y-125835698D01*
X168956701Y-126014327D01*
X169190090Y-126111000D01*
X169442709Y-126111000D01*
X171169909Y-126111000D01*
X171403298Y-126014327D01*
X171581927Y-125835699D01*
X171663758Y-125638139D01*
X171817964Y-125810732D01*
X172345209Y-126064709D01*
X172360974Y-126067358D01*
X172593000Y-125946217D01*
X172593000Y-124587000D01*
X172573000Y-124587000D01*
X172573000Y-124333000D01*
X172593000Y-124333000D01*
X172593000Y-122973783D01*
X172360974Y-122852642D01*
X172345209Y-122855291D01*
X171817964Y-123109268D01*
X171663758Y-123281860D01*
X171581927Y-123084302D01*
X171403299Y-122905673D01*
X171169910Y-122809000D01*
X171018200Y-122809000D01*
X171018200Y-122758200D01*
X174371259Y-122758200D01*
X174415324Y-122802341D01*
X174664156Y-122905665D01*
X174200330Y-123215585D01*
X173993539Y-123525069D01*
X173622036Y-123109268D01*
X173094791Y-122855291D01*
X173079026Y-122852642D01*
X172847000Y-122973783D01*
X172847000Y-124333000D01*
X172867000Y-124333000D01*
X172867000Y-124587000D01*
X172847000Y-124587000D01*
X172847000Y-125946217D01*
X173079026Y-126067358D01*
X173094791Y-126064709D01*
X173622036Y-125810732D01*
X173993539Y-125394930D01*
X174200330Y-125704415D01*
X174686511Y-126029271D01*
X175260000Y-126143345D01*
X175833489Y-126029271D01*
X176319670Y-125704415D01*
X176644526Y-125218234D01*
X176758600Y-124644745D01*
X176758600Y-124275255D01*
X176644526Y-123701766D01*
X176319670Y-123215585D01*
X175833489Y-122890729D01*
X175529873Y-122830336D01*
X175595135Y-122803371D01*
X175888341Y-122510676D01*
X176045519Y-122132149D01*
X176626185Y-122712816D01*
X176774376Y-122811834D01*
X176873395Y-122877996D01*
X176873396Y-122877996D01*
X177165000Y-122936000D01*
X180340000Y-122936000D01*
X180340000Y-122935999D01*
X180631604Y-122877996D01*
X180631605Y-122877996D01*
X180878815Y-122712815D01*
X181513815Y-122077815D01*
X181513816Y-122077815D01*
X181576834Y-121983500D01*
X181641750Y-121983500D01*
X181800500Y-121824750D01*
X181800500Y-120777000D01*
X181780500Y-120777000D01*
X181780500Y-120523000D01*
X181800500Y-120523000D01*
X181800500Y-119475250D01*
X181737000Y-119411750D01*
X181737000Y-117790630D01*
X181925630Y-117602000D01*
X182996391Y-117602000D01*
X182943500Y-117729691D01*
X182943500Y-117824250D01*
X183102250Y-117983000D01*
X184023000Y-117983000D01*
X184023000Y-117963000D01*
X184277000Y-117963000D01*
X184277000Y-117983000D01*
X185197750Y-117983000D01*
X185356500Y-117824250D01*
X185356500Y-117729691D01*
X185349177Y-117712013D01*
X185473876Y-117795334D01*
X185572895Y-117861496D01*
X185572896Y-117861496D01*
X185864500Y-117919500D01*
X186070693Y-117919500D01*
X186088173Y-117961698D01*
X186266801Y-118140327D01*
X186500190Y-118237000D01*
X186752809Y-118237000D01*
X188149809Y-118237000D01*
X188383198Y-118140327D01*
X188561827Y-117961699D01*
X188658500Y-117728310D01*
X188658500Y-117475691D01*
X188658500Y-116586691D01*
X188561827Y-116353302D01*
X188413525Y-116204999D01*
X188561827Y-116056699D01*
X188579306Y-116014500D01*
X189293500Y-116014500D01*
X189293500Y-116014499D01*
X189585104Y-115956496D01*
X189585105Y-115956496D01*
X189832315Y-115791315D01*
X190053630Y-115570000D01*
X190326688Y-115570000D01*
X190525585Y-115867670D01*
X190835069Y-116074460D01*
X190419268Y-116445964D01*
X190165291Y-116973209D01*
X190162642Y-116988974D01*
X190283783Y-117221000D01*
X191643000Y-117221000D01*
X191643000Y-117201000D01*
X191897000Y-117201000D01*
X191897000Y-117221000D01*
X193256217Y-117221000D01*
X193377358Y-116988974D01*
X193374709Y-116973209D01*
X193120732Y-116445964D01*
X192704930Y-116074460D01*
X193014415Y-115867670D01*
X193339271Y-115381489D01*
X193453345Y-114808000D01*
X193453345Y-122325489D01*
X193377358Y-122325423D01*
X193377358Y-117707026D01*
X193256217Y-117475000D01*
X191897000Y-117475000D01*
X191897000Y-118688924D01*
X192131913Y-118833184D01*
X192684320Y-118639954D01*
X193120732Y-118250036D01*
X193374709Y-117722791D01*
X193377358Y-117707026D01*
X193377358Y-122325423D01*
X192617211Y-122324760D01*
X191832273Y-122649090D01*
X191643000Y-122838032D01*
X191643000Y-118688924D01*
X191643000Y-117475000D01*
X190283783Y-117475000D01*
X190162642Y-117707026D01*
X190165291Y-117722791D01*
X190419268Y-118250036D01*
X190855680Y-118639954D01*
X191408087Y-118833184D01*
X191643000Y-118688924D01*
X191643000Y-122838032D01*
X191231200Y-123249114D01*
X190905501Y-124033485D01*
X190904760Y-124882789D01*
X191229090Y-125667727D01*
X191829114Y-126268800D01*
X192613485Y-126594499D01*
X193462789Y-126595240D01*
X194247727Y-126270910D01*
X194848800Y-125670886D01*
X195174499Y-124886515D01*
X195175240Y-124037211D01*
X195175240Y-127560000D01*
X185356500Y-127560000D01*
X185356500Y-118490309D01*
X185356500Y-118395750D01*
X185197750Y-118237000D01*
X184277000Y-118237000D01*
X184277000Y-118840250D01*
X184435750Y-118999000D01*
X184595191Y-118999000D01*
X184847810Y-118999000D01*
X185081199Y-118902327D01*
X185259827Y-118723698D01*
X185356500Y-118490309D01*
X185356500Y-127560000D01*
X184023000Y-127560000D01*
X184023000Y-118840250D01*
X184023000Y-118237000D01*
X183102250Y-118237000D01*
X182943500Y-118395750D01*
X182943500Y-118490309D01*
X183040173Y-118723698D01*
X183218801Y-118902327D01*
X183452190Y-118999000D01*
X183704809Y-118999000D01*
X183864250Y-118999000D01*
X184023000Y-118840250D01*
X184023000Y-127560000D01*
X183007000Y-127560000D01*
X183007000Y-121474810D01*
X183007000Y-121222191D01*
X183007000Y-120935750D01*
X183007000Y-120364250D01*
X183007000Y-120077809D01*
X183007000Y-119825190D01*
X182910327Y-119591801D01*
X182731698Y-119413173D01*
X182498309Y-119316500D01*
X182213250Y-119316500D01*
X182054500Y-119475250D01*
X182054500Y-120523000D01*
X182848250Y-120523000D01*
X183007000Y-120364250D01*
X183007000Y-120935750D01*
X182848250Y-120777000D01*
X182054500Y-120777000D01*
X182054500Y-121824750D01*
X182213250Y-121983500D01*
X182498309Y-121983500D01*
X182731698Y-121886827D01*
X182910327Y-121708199D01*
X183007000Y-121474810D01*
X183007000Y-127560000D01*
X159615240Y-127560000D01*
X159615240Y-124037211D01*
X159290910Y-123252273D01*
X159087358Y-123048365D01*
X159087358Y-118469026D01*
X158966217Y-118237000D01*
X157607000Y-118237000D01*
X157607000Y-119450924D01*
X157841913Y-119595184D01*
X158394320Y-119401954D01*
X158830732Y-119012036D01*
X159084709Y-118484791D01*
X159087358Y-118469026D01*
X159087358Y-123048365D01*
X158690886Y-122651200D01*
X157906515Y-122325501D01*
X157353000Y-122325018D01*
X157353000Y-119450924D01*
X157353000Y-118237000D01*
X155993783Y-118237000D01*
X155872642Y-118469026D01*
X155875291Y-118484791D01*
X156129268Y-119012036D01*
X156565680Y-119401954D01*
X157118087Y-119595184D01*
X157353000Y-119450924D01*
X157353000Y-122325018D01*
X157057211Y-122324760D01*
X156272273Y-122649090D01*
X155671200Y-123249114D01*
X155345501Y-124033485D01*
X155344760Y-124882789D01*
X155669090Y-125667727D01*
X156269114Y-126268800D01*
X157053485Y-126594499D01*
X157902789Y-126595240D01*
X158687727Y-126270910D01*
X159288800Y-125670886D01*
X159614499Y-124886515D01*
X159615240Y-124037211D01*
X159615240Y-127560000D01*
X154380000Y-127560000D01*
X154380000Y-88340000D01*
X196140000Y-88340000D01*
X196140000Y-127560000D01*
M02*
